<?xml version="1.0" standalone="no"?>
<!DOCTYPE svg PUBLIC "-//W3C//DTD SVG 1.1//EN" "http://www.w3.org/Graphics/SVG/1.1/DTD/svg11.dtd" >
<svg xmlns="http://www.w3.org/2000/svg">
<metadata>Generated by IcoMoon</metadata>
<defs>
<font id="icomoon" horiz-adv-x="1024">
<font-face units-per-em="1024" ascent="819" descent="-205" />
<missing-glyph horiz-adv-x="1024" />
<glyph unicode="&#x20;" horiz-adv-x="384" d="" />
<glyph unicode="&#x23;" glyph-name="numbersign" horiz-adv-x="1169" d="M433 140.5l123.5 41 39.5-118.5-123-41.5zM809.5 71c0 12-4.834 22.498-14.5 31.498s-18.667 13.5-27 13.5-15.5-0.833-21.5-2.5l-60-20-39.5 118.5 59.5 20c10 3.333 18 9.167 24 17.501s9 16.167 9 23.5c0 19.667-6.833 34.167-20.5 43.5-8 6-15.667 9-23 9s-13.833-0.833-19.5-2.5l-59.5-20-21 61c-7.333 22-23.333 33-48 33-12 0-23.5-5.667-34.5-17-10.666-11.333-13.333-26.667-8-46l21-62-123.5-41-20.5 61.5c-3.333 10-9.167 18-17.5 24-8 6-15.666 9-23 9-19.666 0-34.166-6.334-43.5-19s-11.5-27.333-6.5-44l20.5-62-59.5-20c-10-3.333-18-9.167-24-17.5-6-8-9-15.666-9-23s1.333-15 4-23 8-14.666 16-20c8-5.666 17-8.666 27-9h2.5c3 0 7.5 0.667 13.5 2l59.5 20.5 40-119-60-20c-10-3.333-17.834-9.167-23.5-17.5s-8.5-16.5-8.5-24.5c0-18.667 6.5-32.667 19.5-42 13-9.667 27.5-11.833 43.5-6.5l59 20 21-62c3-9.666 10.166-18.333 21.5-26s23.167-9.333 35.5-5c24.333 8 36.5 23.666 36.5 47 0 4-0.833 8.834-2.5 14.5l-21 61.5 123 41.5 20.5-62c3.333-9.667 9-17.333 17-23s17-8.667 27-9h3.5c15.333 0 26.833 5.5 34.5 16.5s11.5 20 11.5 27-0.833 13.5-2.5 19.5l-20.5 61.5 59 19.5c22 7 33 23.167 33 48.5zM976 11.498c0-84-26.334-151.501-79.001-202.501s-137.833-94.167-255.5-129.5c-85.667-26-158.167-38.833-217.5-38.5-83.666 0-151 26.334-202 79s-94.166 137.667-129.5 255c-25.666 85.667-38.333 158-37.999 217 0 83.667 26.166 151 78.5 202s137.333 94.333 255 130c85.666 25.667 158 38.5 217 38.5 83.667 0.333 151.167-25.833 202.5-78.5s94.5-137.833 129.5-255.5c26-87.333 39-159.667 39-217z" />
<glyph unicode="&#x40;" glyph-name="at" d="M512 154c35.333 0 65.5 12.333 90.5 37s37.5 55 37.5 91c0 35.333-12.5 65.5-37.5 90.5s-55.167 37.5-90.5 37.5-65.5-12.5-90.5-37.5-37.5-55.167-37.5-90.5 12.5-65.5 37.5-90.5 55.166-37.5 90.5-37.5zM806.5 77c-63.333 0-110.165 23.334-140.499 70.001-40.333-46.667-90.167-70-149.5-70-59.666 0-109.5 20-149.5 60s-60 88.333-60 145 20 105 60 145 86.166 59.833 138.5 59.5c52.333 0 97.167-15 134.5-45v6.5c0 10.667 3.833 19.833 11.5 27.5s16.833 11.5 27.5 11.5 19.667-4 27-12c7.333-7.333 11-16.333 11-27v-204.5c0-27 8.167-48.666 24.5-65s38.5-24.5 66.5-24.5 49.667 11.5 65 34.5 23 57.5 23 103.5-10.167 92.333-30.5 139c-20.333 47.333-47.667 88.167-82 122.5s-75.167 61.667-122.5 82-97 30.5-149 30.5-101.666-10.167-149-30.5-88.167-47.667-122.5-82-61.667-75.167-82-122.5-30.5-97-30.5-149 10.166-101.834 30.5-149.5c41-95.666 109.166-163.667 204.5-204 47.334-20.333 100.667-30.5 160-30.5s117.833 16 175.5 48c6 3.333 13.333 5 22 5 9 0 17.167-3.667 24.5-11s11-17.667 11-31c0-12.667-7-22.667-21-30l-1.5-1c-69-38-138.833-57-209.5-57s-134.333 12.167-191 36.5c-114.666 49-196.333 130.833-245 245.5-24.666 56.667-37 116.333-37 179s12.334 122.167 37 178.5c49 114.333 130.667 196.167 245 245.5 57 24.333 116.666 36.5 179 36.5 62.667 0 122.333-12.167 179-36.5 114.667-49 196.333-130.833 245-245.5 24.667-57 37-116.5 37-178.5s-14.833-111.667-44.5-149-70.333-56-122-56z" />
<glyph unicode="&#x61;" glyph-name="a" horiz-adv-x="502" d="M251 42.5c-32.666 0-59.167-6.833-79.5-20.5s-30.5-30.167-30.5-49.5 6.667-34.333 20-45 32.167-16 56.5-16c24.334 0.333 48 6.5 71 18.5s41.334 28.833 55 50.5v45.5c-29 11-59.834 16.5-92.5 16.5zM23-30c0 46.667 18.333 85 54.999 115s81 45 133 45 96.167-7.333 132.5-22v33.5c0 26.667-10 47.5-30 62.5s-47.334 22.5-82 22.5-70.666-10.833-108-32.5c-12.334-8-21.834-10.333-28.5-7s-16.666 15-30 35-19.834 33.667-19.5 41 9.834 17 28.5 29 43.833 22.667 75.5 32c31.334 9.333 62.167 14 92.5 14 69.334 0 124-17.833 164-53.5s60.166-85 60.5-148v-289.5c0-8-2.5-14.333-7.5-19s-11.166-7-18.5-7h-70c-8.334 0-14.834 2.667-19.5 8s-6.833 11.833-6.5 19.5l1 31.5c-38.666-42.667-86-64-142-64-56.334 0-100.5 14-132.5 42s-48 65.333-48 112z" />
<glyph unicode="&#x62;" glyph-name="b" horiz-adv-x="576" d="M303.5-75c35 0 64.166 13.666 87.5 40.999 23 27.333 34.5 63.667 34.5 109 0.333 45.334-10.166 81.667-31.5 109s-49 40.833-83 40.5c-65 0-115.834-35.5-152.5-106.5v-84c34.666-72.667 83-109 145-109zM327.5 338c30.666 0 59.332-6.335 85.999-19.002 56.334-26.666 96.667-71.833 121-135.499 12.333-33 18.5-68.5 18.5-106.5 0-78.667-21.833-141.833-65.5-189.5s-101.5-71.5-173.5-71.5c-61 0-112.834 25.167-155.5 75.5v-49c-0.333-5.333-2.833-10.167-7.5-14.5s-10.833-6.5-18.5-6.5h-70.5c-8 0-14.334 2.167-19 6.5s-7 9.167-7 14.5v671.5c0 16.333 3.5 26.5 10.5 30.5s21.166 6 42.5 6c21.334 0.333 35.667 0.167 43-0.5s13.334-2.667 18-6c4.333-3.333 6.833-6.833 7.5-10.5s1-10.167 1-19.5v-252.5c22 24.334 48 43.167 78 56.5s60.334 20 91 20z" />
<glyph unicode="&#x63;" glyph-name="c" horiz-adv-x="493" d="M297.5 338c24.666 0 50.5-3.666 77.5-11 26.666-7.334 48-15.667 64-25s24-18 24-26-6.834-22.333-20.5-43-23.5-32.5-29.5-35.5-19.334 0.833-40 11.5c-20.334 10.667-45.167 15.833-74.5 15.5-44.334 0-80-13.334-107-40s-40.5-62.5-40.5-107.5c0-45.334 13.5-82 40.5-110s62.666-42 107-42c31.666 0 58.5 6.333 80.5 19s36 17.333 42 14c6.666-2.667 16.333-13.333 29-32s19.333-31.833 20-39.5c0.333-7.666-5.333-15.166-17-22.5-20-14-44.5-25.5-73.5-34.5s-56.666-13.5-83-13.5c-82.334 0-148.5 24-198.5 72s-75 111.167-75 189.5 25.166 141.333 75.5 189 116.667 71.5 199 71.5z" />
<glyph unicode="&#x64;" glyph-name="d" horiz-adv-x="576" d="M417.5 133.5c-39.666 60.667-90.5 91-152.5 91-32 0-59-13.833-81-41.5-22.334-28-33.5-64.333-33.5-109s11.166-80.667 33.5-108 51.834-41 88.5-41c63.666 0 112 36 145 108v100.5zM487 550.5c21.334 0 35.5-2 42.5-6 7.333-4 10.833-14.167 10.5-30.5v-671.5c0-5.333-2.5-10.167-7.5-14.5s-11.167-6.5-18.5-6.5h-70.5c-7.666 0-14 2.167-19 6.5s-7.334 9.167-7 14.5v49.5c-44.334-50.667-100.167-76-167.5-76s-122 24-164 72-63 111-63 189 21.834 141 65.5 189 101 72 172 72c28.334 0 56.5-5.666 84.5-17s52.166-27 72.5-47v240c0 9.333 0.333 15.833 1 19.5s3.167 7.167 7.5 10.5c4.667 3.333 10.666 5.333 18 6s21.667 0.833 43 0.5z" />
<glyph unicode="&#x65;" glyph-name="e" horiz-adv-x="541" d="M419.5 137c0 42.667-11.834 77.334-35.5 104-24 26.666-57 40-99 40s-76-12.666-102-38-41.834-60.667-47.5-106h284zM290-185.999c-73.334 0-132.999 24.334-178.999 73s-68.834 113.333-68.5 194c0 81 21.834 145.667 65.5 194 43.333 48.667 99.333 73 168 73s123.333-20.667 164-62 61-98 61-170c0-14.667-1.5-24.333-4.5-29s-8.834-7-17.5-7h-346.5c2.333-64.334 17.834-112.834 46.5-145.5s67.166-49 115.5-49 93.334 14.167 135 42.5c7.666 5 14.833 7.5 21.5 7.5s12.166-2.833 16.5-8.5l25.5-33.5c-22-26.333-51.666-46.167-89-59.5s-75.334-20-114-20z" />
<glyph unicode="&#x66;" glyph-name="f" horiz-adv-x="359" d="M299 495.5c-69.666 0-104.5-39.5-104.5-118.5v-47.5h149.5v-66h-146.5v-442.5h-91.5v441l-57.5 6.5c-16.334 4-24.5 11.833-24.5 23.5v37.5h82v50c0 58.667 15.834 104.333 47.5 137s75.166 49 130.5 49c23 0 44.334-3.5 64-10.5l-2-45.5c-0.667-8.333-6-12.833-16-13.5s-20.334-0.833-31-0.5z" />
<glyph unicode="&#x67;" glyph-name="g" horiz-adv-x="532" d="M111.5-217c0.333-25 13.166-45.001 38.5-60.001s62.167-22.5 110.5-22.5c48.334-0.333 86.5 8.167 114.5 25.5s42.166 38.667 42.5 64.001c0 25.333-13.166 42.667-39.5 52-19 6.667-50.166 11.333-93.5 14l-54.5 3c-20.334 1-38.167 2.667-53.5 5-43.334-20-65-47-65-81zM253 74.5c36 0.333 63.666 9.834 83 28.5s29.167 44 29.5 76c0 32-9.666 57.334-29 76s-47.167 28-83.5 28-64.334-9.334-84-28c-19.334-18.666-29-43.666-29-75 0-32 9.834-57.666 29.5-77s47.5-28.834 83.5-28.5zM510 319l0.001-33.5c0-11.333-7.166-18.5-21.5-21.5l-59-8c11.666-22.333 17.5-47.167 17.5-74.5 0-50.334-18.166-90.834-54.5-121.5s-82.834-46-139.5-46c-23.666 0-46.5 2.833-68.5 8.5-22.666-14-34-29-34-45 0-29.667 37-45.167 111-46.5 56.334-2 99.334-5.667 129-11 74.666-13.667 111.5-51.167 110.5-112.5 0-46.333-22-86.833-66-121.5s-102.666-52-176-52c-72.666 0-128.667 13.334-168 40s-59.167 59.167-59.501 97.5c0 49 30.166 84.834 90.5 107.5-33.334 15-50.167 39.5-50.501 73.5 0 15.334 6 31.5 18 48.5s28 30.5 48 40.5c-54.334 30.334-81.334 77-81 140 0 50.334 18.334 90.834 55 121.5s80.5 45.667 131.5 45c51 0 93-9.667 126-29h141z" />
<glyph unicode="&#x68;" glyph-name="h" horiz-adv-x="546" d="M331 338c56 0 99.833-19.167 131.5-57.5s47.5-89.834 47.5-154.5v-283.5c0-5.333-2.5-10.167-7.5-14.5s-11.166-6.5-18.5-6.5h-71c-8 0-14.334 2.167-19 6.5s-7 9.167-7 14.5v278c0 33-7.5 58.5-22.5 76.5s-36.5 27-64.5 27-54.334-9.334-79-28c-24.334-18.666-45.167-44.666-62.5-78v-275.5c-0.333-5.333-2.833-10.167-7.5-14.5s-10.833-6.5-18.5-6.5h-70.5c-8 0-14.334 2.167-19 6.5s-7 9.167-7 14.5v671.5c0 16.333 3.5 26.5 10.5 30.5s21.166 6 42.5 6c21.334 0.333 35.667 0.167 43-0.5s13.334-2.667 18-6c4.333-3.333 6.833-6.833 7.5-10.5s1-10.167 1-19.5v-252.5c46.334 51 103.834 76.5 172.5 76.5z" />
<glyph unicode="&#x69;" glyph-name="i" horiz-adv-x="231" d="M65 327c7 4 24.5 6 52.5 6s45-2.167 51-6.5c4.333-3.333 6.833-6.833 7.5-10.5s1-10.167 1-19.5v-454c0-5.333-2.5-10.167-7.5-14.5s-11.166-6.5-18.5-6.5h-70.5c-7.666 0-14 2.167-19 6.5s-7.334 9.167-7 14.5v454c0 16.333 3.5 26.5 10.5 30.5zM115.5 391c-22.334 0-41.166 7.668-56.5 23.001s-23 34.333-23 57c0 22 7.834 40.833 23.5 56.5s34.5 23.5 56.5 23.5 40.666-8 56-24c15.666-15.333 23.5-34.167 23.5-56.5s-7.833-41.167-23.5-56.5-34.5-23-56.5-23z" />
<glyph unicode="&#x6a;" glyph-name="j" horiz-adv-x="246" d="M77.5 339.5h90.999v-557c0.333-44.667-11.833-80.5-36.499-107.5s-61.5-40.5-110.5-40.5c-19.666 0-39 3.5-58 10.5l3.5 49c1.667 7.333 6.166 10.833 13.5 10.5s15-0.5 23-0.5c26.334 0 45.167 6 56.501 18s17.167 32.167 17.501 60.5v557zM187.499 503c0-17.333-6.5-32.5-19.5-45.5s-28.333-19.5-46-19.5c-17.334 0-32.334 6.333-45 19s-19 28-19 46c0 17.333 6.334 32.5 19 45.5s27.666 19.5 45 19.5 32.667-6.333 46.001-19c13-13.333 19.5-28.667 19.5-46z" />
<glyph unicode="&#x6b;" glyph-name="k" horiz-adv-x="521" d="M158.5-157.5c-0.333-5.333-2.834-10.166-7.501-14.5s-10.833-6.5-18.5-6.5h-70.5c-8 0-14.334 2.167-19 6.5s-7 9.167-7 14.5v671.5c0 16.333 3.5 26.5 10.5 30.5s21.166 6 42.5 6c21.334 0.333 35.667 0.167 43.001-0.5s13.334-2.667 18-6c4.333-3.333 6.833-6.833 7.5-10.5s1-10.167 1-19.5v-381.5l201 192.5c11.334 10.667 21.5 15.333 30.5 14s23.834-8.667 44.5-22 32.5-23.334 35.5-30-0.667-15-11-25l-150-145.5 178.5-231.5c10-13.333 12.5-23.333 7.5-30-5.334-6.667-21-14.667-47-24s-43-13.667-51-13c-8 1-16.834 7.5-26.5 19.5l-146 195.5-66-63.5v-127z" />
<glyph unicode="&#x6c;" glyph-name="l" horiz-adv-x="195" d="M89 550.5c21.334 0.333 35.666 0.167 43-0.5s13.334-2.667 18-6c4.333-3.333 6.833-6.833 7.5-10.5s1-10.167 1-19.5v-671.5c-0.333-5.333-2.833-10.167-7.5-14.5s-10.833-6.5-18.5-6.5h-70.5c-8 0-14.334 2.167-19 6.5s-7 9.167-7 14.5v671.5c0 16.333 3.5 26.5 10.5 30.5s21.166 6 42.5 6z" />
<glyph unicode="&#x6d;" glyph-name="m" horiz-adv-x="825" d="M610.5 338c56 0 99.833-19.167 131.5-57.5s47.5-89.834 47.5-154.5v-283.5c0-5.333-2.5-10.167-7.5-14.5s-11.167-6.5-18.5-6.5h-71c-7.667 0-13.833 2.167-18.5 6.5s-7.167 9.167-7.5 14.5v278c0 33-7.5 58.5-22.5 76.5s-36.833 27-65.5 27c-40.333 0-76-18.5-107-55.5 1.667-14.666 2.5-28.833 2.5-42.5v-283.5c0-5.333-2.5-10.167-7.5-14.5s-11.166-6.5-18.5-6.5h-70.5c-7.666 0-14 2.167-19 6.5s-7.5 9.167-7.5 14.5v278c0 33-7.5 58.5-22.5 76.5s-36.834 27-65.5 27c-39 0-73.834-17.5-104.5-52.5v-329c-0.333-5.333-2.833-10.167-7.5-14.5s-10.833-6.5-18.5-6.5h-70.5c-8 0-14.334 2.167-19 6.5s-7 9.167-7 14.5v454c0 16.333 3.5 26.5 10.5 30.5 7.334 4 24.834 6 52.5 6s44.666-2.167 51-6.5c4.333-3.333 6.833-6.833 7.5-10.5s1-10.167 1-19.5v-3c40.334 29.667 85.834 44.5 136.5 44.5 64.666 0 112.833-25 144.5-75 46.666 50 103.667 75 171 75z" />
<glyph unicode="&#x6e;" glyph-name="n" horiz-adv-x="546" d="M331 338c56 0 99.834-19.167 131.5-57.5s47.5-89.833 47.5-154.5v-283.5c0-5.333-2.5-10.167-7.5-14.5s-11.166-6.5-18.5-6.5h-71c-8 0-14.334 2.167-19 6.5s-7 9.167-7 14.5v278c0 33-7.5 58.5-22.5 76.5s-36.5 27-64.5 27-54.334-9.333-79-28c-24.334-18.667-45.167-44.667-62.5-78v-275.5c-0.333-5.333-2.833-10.167-7.5-14.5s-10.833-6.5-18.5-6.5h-70.5c-8 0-14.334 2.167-19 6.5s-7 9.167-7 14.5v454c0 16.333 3.5 26.5 10.5 30.5 7.334 4 24.834 6 52.5 6s44.666-2.167 51-6.5c4.333-3.333 6.833-6.833 7.5-10.5s1-10.167 1-19.5v-35c46.334 51 103.834 76.5 172.5 76.5z" />
<glyph unicode="&#x6f;" glyph-name="o" horiz-adv-x="545" d="M273 224.5c-39 0-69.166-13.5-90.5-40.5s-32-63.5-32-109.5c0-46.333 10.666-82.833 32-109.5s51.5-40 90.5-40 69 13.333 90 40 31.666 63 32 109c0 46-10.666 82.667-32 110s-51.334 40.833-90 40.5zM273 338c80.666 0 142.333-23.5 185-70.5s64-110.5 64-190.5-21.334-143.667-64-191c-42.666-46.667-104.333-70-185-70s-142.667 23.5-186 70.5c-42.666 47-64 110.5-64 190.5s21.5 143.667 64.5 191c43 46.667 104.834 70 185.5 70z" />
<glyph unicode="&#x70;" glyph-name="p" horiz-adv-x="574" d="M303.5-75c35 0 64.166 13.666 87.5 40.999 23 27.333 34.5 63.667 34.5 109 0.333 45.334-10.166 81.667-31.5 109s-49 40.833-83 40.5c-65 0-115.834-35.5-152.5-106.5v-84c34.666-72.667 83-109 145-109zM327.5 338c30.666 0 59.332-6.335 85.999-19.001 56.334-26.667 96.667-71.833 121-135.5 12.333-33 18.5-68.5 18.5-106.5 0-78.666-21.833-141.833-65.5-189.5s-101.5-71.5-173.5-71.5c-61 0-112.834 25.167-155.5 75.5v-266.5c-0.333-5.333-2.833-10.167-7.5-14.501s-10.833-6.5-18.5-6.5h-70.5c-8 0-14.334 2.167-19 6.5s-7 9.167-7 14.501v671.5c0 16.333 3.5 26.5 10.5 30.5 7.334 4 24.834 6 52.5 6s44.666-2.167 51-6.5c4.333-3.333 6.833-6.833 7.5-10.5s1-10.167 1-19.5v-35c22 24.333 48 43.167 78 56.5s60.334 20 91 20z" />
<glyph unicode="&#x71;" glyph-name="q" horiz-adv-x="576" d="M417.5 133.5c-39.666 60.667-90.5 91-152.5 91-32 0-59-13.833-81-41.5-22.334-28-33.5-64.333-33.5-109s11.166-80.667 33.5-108 51.834-41 88.5-41c63.666 0 112 36 145 108v100.5zM428 327c7 4 24.5 6 52.5 6s45-2.167 51-6.5c4.333-3.333 6.833-6.833 7.5-10.5s1-10.167 1-19.5v-671.5c0-5.333-2.5-10.167-7.5-14.501s-11.167-6.5-18.5-6.5h-70.5c-7.666 0-14 2.167-19 6.5s-7.334 9.167-7 14.501v267c-44.334-50.667-100.167-76-167.5-76s-122 24-164 72-63 111-63 189 21.834 141 65.5 189 101 72 172 72c28.334 0 56.5-5.667 84.5-17s52.166-27 72.5-47v22.5c0 16.333 3.5 26.5 10.5 30.5z" />
<glyph unicode="&#x72;" glyph-name="r" horiz-adv-x="385" d="M299 223.5c-28.666 0-56.001-13.668-82.001-41.001s-45.5-63.333-58.5-108v-232c-0.333-5.333-2.833-10.167-7.5-14.5s-10.833-6.5-18.5-6.5h-70.5c-8 0-14.334 2.167-19 6.5s-7 9.167-7 14.5v454c0 16.333 3.5 26.5 10.5 30.5 7.334 4 24.834 6 52.5 6s44.667-2.167 51-6.5c4.333-3.333 6.833-6.833 7.5-10.5s1-10.167 1-19.5v-62c40 69 94 103.5 162 103.5 16.334 0 30.167-1.333 41.5-4s17.334-9.333 18-20-1.833-26.333-7.5-47-10.833-34.667-15.5-42-12-9.333-22-6c-10 3-22 4.5-36 4.5z" />
<glyph unicode="&#x73;" glyph-name="s" horiz-adv-x="451" d="M221.5 338c57.666 0 114.503-12.666 170.503-38 10-4.333 17.334-9.5 22-15.5s0.667-20.666-12-44c-12.334-23.666-21.5-37.333-27.5-41s-16-2.667-30 3c-41 17.333-75.166 26-102.5 26-27.334 0.333-48.167-3.5-62.5-11.5s-21.5-18-21.5-30c0-21.333 17.834-38 53.5-50 16-5.333 40.334-12.5 73-21.5 95.666-26 143.5-74.833 143.5-146.5 0-46.667-17.834-83.833-53.5-111.5s-82.666-41.5-141-41.5c-30 0-62.334 4.333-97 13-35 8.667-62.5 18.333-82.5 29-20 10-30.334 18.667-31 26s4.333 21 15 41 18.833 32 24.499 36c5.666 3.333 17.833 1 36.499-7s40.833-15.167 66.499-21.5 48.5-9.5 68.5-9.5 36.5 4 49.5 12 19.5 17.833 19.5 29.5c0 12-5 22-15 30-13 10.667-42.666 22.333-89 35s-86.167 29.833-119.501 51.5c-33.334 21.333-50.167 55.333-50.501 102 0 46.667 17.666 84.167 53 112.5s81.833 42.5 139.5 42.5z" />
<glyph unicode="&#x74;" glyph-name="t" horiz-adv-x="367" d="M104-54v317.5h-62.5c-13 0-19.5 6.666-19.5 20v36l85 11 21 160c2.333 11.667 9.334 17.5 21 17.5h46v-178.5h150v-66h-150v-311.5c0-21 5.167-37 15.5-48s23.5-16.5 39.5-16.5c16 0.333 28.666 3.167 38 8.5s15.834 9.333 19.5 12 7.5 4 11.5 4 7.666-2.833 11-8.5l27-43.5c-33.334-31.333-72.834-47-118.5-47-89.666 0-134.5 44.333-134.5 133z" />
<glyph unicode="&#x75;" glyph-name="u" horiz-adv-x="546" d="M387 296c0 16.333 3.667 26.5 11 30.5s24.834 6 52.5 6c28 0.333 44.5-1.5 49.5-5.5 5.334-4 8.334-7.833 9-11.5s1-10.167 1-19.5v-454c0-5.333-2.5-10.167-7.5-14.5s-11.166-6.5-18.5-6.5h-71c-8 0-14.334 2.167-19 6.5s-7 9.167-7 14.5v50.5c-46.334-51-103.667-76.5-172-76.5-56 0-99.834 19.167-131.5 57.5s-47.5 89.833-47.5 154.5v268.5c0 16.333 3.5 26.5 10.5 30.5 7.334 4 24.834 6 52.5 6s44.666-2.167 51-6.5c4.333-3.333 6.833-6.833 7.5-10.5s1-10.167 1-19.5v-263c0-33 7.5-58.5 22.5-76.5s36.666-27 65-27 54.667 9.333 79 28 45 44.667 62 78v260z" />
<glyph unicode="&#x76;" glyph-name="v" horiz-adv-x="528" d="M445.5 339.5h71l-211.5-518.5h-82l-211 518.5h74c14.334 0 23.667-6.333 28.001-19l132-333.5c5.667-17.667 12-42 19-73 7.334 31 14 55.333 20 73l133.5 333.5c4.667 12.667 13.666 19 27 19z" />
<glyph unicode="&#x77;" glyph-name="w" horiz-adv-x="804" d="M719 339.5h68.5l-168-518.5h-72c-9 0-15.167 5.833-18.5 17.5l-115 351.5c-3.333 10-5.334 17-6 21s-1.667 9-3 15c-1.333 5.333-2.167 9.333-2.5 12l-5-24c-1-5.333-3.333-13.5-7-24.5l-116.5-351c-3-11.667-9.834-17.5-20.5-17.5h-68.5l-168 518.5h71.5c14.334 0 23.667-6.333 28.001-19l99.5-333.5c5.667-25 10.333-48.167 14-69.5 9 32.333 15.666 55.5 20 69.5l109.5 336c4 12 12.166 17.833 24.5 17.5h40c13.334 0 22-5.833 26-17.5l107-336c4.667-14.667 11-37.833 19-69.5 3 18.667 8 41.833 15 69.5l101 333.5c4 12.667 13 19 27 19z" />
<glyph unicode="&#x78;" glyph-name="x" horiz-adv-x="510" d="M410.5-179c-11.666 0-21 6.334-28 19.001l-130.5 203c-3.333-12.333-7-21.167-11-26.5l-120.5-176.5c-8.666-12.666-17.833-19-27.499-19h-81l181.5 266-174.5 252.5h87.5c11.334 0 19.834-4.5 25.5-13.5l127.5-194.5c2.333 9.334 6.667 18.834 13 28.5l111.5 164c6.666 10.667 14.333 15.833 23 15.5h84l-174.5-247.5 181.5-271h-87.5z" />
<glyph unicode="&#x79;" glyph-name="y" horiz-adv-x="528" d="M447.5 339.5h72l-289-671.5c-6.667-15-17.666-22.5-33-22.5h-67.5l95 205.5-214 488.5h78.5c14 0 23.5-6.333 28.5-19l138.5-326.5c5.666-14.667 10.333-29.667 14-45 4.667 16.333 9.666 31.5 15 45.5l135 326c4.667 12.667 13.666 19 27 19z" />
<glyph unicode="&#x7a;" glyph-name="z" horiz-adv-x="463" d="M430 339.5v-39c0-14-4-25.5-12-34.5l-281.5-374h284v-71h-391v38c0 11 4.167 21.833 12.5 32.5l282.5 376.5h-279v71.5h384.5z" />
<glyph unicode="&#xe001;" glyph-name="star_o" d="M795 393c-6 0-62.334-1.999-169-5.999-11.333 0-18.333 5.333-21 16-38 161.667-69 242.5-93 242.5s-55-80.833-93-242.5c-2.667-11.333-10.833-16.667-24.5-16l-78 4c-38.334 2-70 2.833-95 2.5-55.666 0-83.5-9.833-83.5-29.5 0.333-15 19.167-36.5 56.5-64.5 18.334-13.666 67.334-46.166 147-97.5 6.334-4.333 9.5-8.667 9.5-13s-0.667-8.5-2-12.5c-54-125.667-80.834-209.333-80.5-251 0-14 4.167-21 12.5-21 14.666-0.333 41.5 14.167 80.5 43.5s84.166 68 135.5 116c4.333 4.333 9.334 6.5 15 6.5s10.667-2.167 15-6.5c114.333-107 186.333-160.167 216-159.5 8.667 0 12.833 7 12.5 21 0 41.666-26.833 125.333-80.5 251-1.333 4.333-2 8.5-2 12.5s3.167 8.333 9.5 13c7 4 28.833 18 65.5 42s68.833 46.333 96.5 67c27.333 21 41.167 38.667 41.5 53 0 19.333-30.333 29-91 29zM43.999 381.5c0 60 68.834 89.667 206.5 89 26.666 0 61.833-1.167 105.5-3.5 21.334 105 52.167 183.333 92.5 235 21.334 27 42.5 40.5 63.5 40.5 20.667 0 41.667-13.5 63-40.5 41.667-53 72.667-131.333 93-235 43.667 2.333 78.833 3.5 105.5 3.5 137.667 0 206.5-29.333 206.5-88s-72-131.667-216-219c45.667-99.333 68.5-181.333 68.5-246 0-64.333-21.167-96.5-63.5-96.5-31.667 0-71.667 14.667-120 44s-94 65.333-137 108c-43-42.667-88.666-78.667-137-108s-88.334-44-120-44c-42.334 0-63.5 30.333-63.5 91 0 69.667 22.834 153.5 68.5 251.5-144 87.333-216 160-216 218z" />
<glyph unicode="&#xe002;" glyph-name="unstar_o" d="M832.5-82.5c0-64.333-21.166-96.499-63.5-96.499-31.667 0-71.667 14.667-120 44s-94 65.334-137 108c-37-37.333-76.334-69.667-118-97-54-35.333-96-53-126-53-6.666 0-13.666 3.833-21 11.5s-11 16.167-11 25.5c0 18.667 8.666 31.333 26 38 56 16.667 134.333 72 235 166 4 4 9 6 15 6s11-2 15-6c114.333-107 186.333-160.167 216-159.5 8.667 0 12.833 7 12.5 21 0 41.666-26.833 125.333-80.5 251-1.333 4.333-2 8.5-2 12.5s3.167 8.333 9.5 13c79.667 51.667 128.667 84.167 147 97.5 37.667 27.667 56.5 49.167 56.5 64.5s-17.167 24.667-51.5 28c-10 0.667-18.333 4.667-25 12s-10 16.333-10 27 4.333 20 13 28c8.667 8.333 19.5 11.333 32.5 9 90-8.333 135-37.167 135-86.5 0-58-72-130.667-216-218 45.667-99.667 68.5-181.667 68.5-246zM870.5 604c0-10-3.833-18.833-11.5-26.5l-691-694.5c-7.333-7.333-16.167-11-26.5-11s-19.5 3.667-27.5 11-12 16-12 26 3.833 18.5 11.5 25.5l691.5 695c6.667 7 15.5 10.5 26.5 10.5s20.167-3.5 27.5-10.5 11.167-15.5 11.5-25.5zM44.001 382c0 59 68.835 88.499 206.501 88.499 26.666 0 61.833-1.167 105.5-3.5 21.334 105 52.167 183.333 92.5 235 21 27 42.166 40.5 63.5 40.5s42.5-13.333 63.5-40c20.667-26.667 39.333-62 56-106 1.667-5 2.5-11.167 2.5-18.5s-3.833-15-11.5-23c-7.667-7.333-16.167-11-25.5-11-18 0.333-30.5 8.5-37.5 24.5-0.667 0.667-1 1.5-1 2.5-16.667 49.333-32.167 74.167-46.5 74.5-24 0-55-80.833-93-242.5-2.667-11-9.666-16.333-21-16-106.334 4-168.667 6-187 6-48 0-72.334-9.667-73-29 0-10.667 8-23.333 24-38s39.834-32.667 71.5-54l0.5-0.5h0.5c11-7.667 16.5-17.5 16.5-29.5s-3.833-21.833-11.5-29.5c-14.334-14.333-30.334-15.833-48-4.5-1.333 0.667-2.5 1.5-3.5 2.5-96 67.333-144 124.5-144 171.5z" />
<glyph unicode="&#xe003;" glyph-name="user" d="M845-76v5c0 22.667-16.167 45.5-48.5 68.5s-74.667 42-127 57-104.833 22.5-157.5 22.5-105.333-7.5-158-22.5c-52-15-94.166-34-126.5-57s-48.5-45.833-48.5-68.5v-5c0-7.333 2.667-13.5 8-18.5s11.5-7.5 18.5-7.5h613c7 0 13.167 2.5 18.5 7.5s8 11.167 8 18.5zM358.5 384c0-30.667 6.999-61.665 20.999-92.999s33-57.834 57-79.5c24-21.334 49.166-32 75.5-32s51.667 10.834 76 32.5 43.333 48.333 57 80 20.5 62.333 20.5 92c0 53.333-13.167 96.5-39.5 129.5-26.667 33-64.667 49.5-114 49.5s-87.334-16.333-114-49c-26.666-33.333-39.833-76.667-39.5-130zM921.5-70.999v-5c0-28.666-10-53-30-73s-44.333-30-73-30h-613c-28.334 0-52.667 10-73 30-20 20-30 44.334-30 73v5c0 33 13.334 64.5 40 94.5 54.334 61.334 139.5 101.5 255.5 120.5-34.666 26.666-62.833 62.166-84.5 106.5-21.334 44.334-32 88.833-32 133.5 0.333 75.333 21.167 137 62.5 185s97.334 71.667 168 71c70.667 0 126.667-23.667 168-71s62.167-109 62.5-185c-0.333-45.333-11.167-90-32.5-134s-49.333-79.334-84-106c117.333-20 202.5-60.166 255.5-120.5 26.667-30 40-61.5 40-94.5z" />
<glyph unicode="&#xe004;" glyph-name="comment_alt" d="M595.5 282c13.667 0 24.5-3.333 32.5-10s12-16.167 12-28.5-4-21.833-12-28.5-18.833-10-32.5-10h-217.5c-14 0-25 3.333-33 10s-12 16-12 28c0 25 15 38 45 39h217.5zM378 358.5c-14 0.333-25 3.833-33 10.5s-12 16-12 28 4 21.333 12 28 19 10.167 33 10.5h268.5c14-0.333 25-3.833 33-10.5s11.833-16 11.5-28c0-25-14.833-37.833-44.5-38.5h-268.5zM512 666c-44.666 0-87.666-8.834-129-26.501s-76.834-41.333-106.5-71-53.333-65-71-106-26.5-84.167-26.5-129.5 8.834-88.334 26.5-129c17.666-41.334 41.333-76.834 71-106.5s65-53.333 106-71 85.834-26.5 134.5-26.5 96.333 11.5 143 34.5c16.667 8.667 33.167 10.167 49.5 4.5l143-46.5-46.5 143c-5.333 16.333-3.833 32.833 4.5 49.5 23 46.333 34.5 93.833 34.5 142.5 0 48.333-8.833 93.167-26.5 134.5-35.333 82.667-94.333 141.833-177 177.5-41.333 17.667-84.5 26.5-129.5 26.5zM512 742.5c55.333 0 108.333-10.833 159-32.5 102.333-44 175-116.667 218-218 21.667-50.667 32.5-104 32.5-160s-11.333-110.333-34-163c-4.333-11-4.833-21.167-1.5-30.5l55.5-171c7.333-22 4-40-10-54s-32-17.333-54-10l-171 55.5c-9.667 3.333-19.833 2.833-30.5-1.5-52.333-23-106.667-34.5-163-34.5-56 0-109.334 11-160 33-102.334 44-175 116.667-218 218-21.666 50.667-32.5 103.667-32.5 159s10.834 108.333 32.5 159c44 102.333 116.666 175 218 218 50.334 21.667 103.334 32.5 159 32.5z" />
<glyph unicode="&#xe005;" glyph-name="comment_o" d="M512 666c-44.666 0-87.666-8.834-129-26.501s-76.834-41.333-106.5-71-53.333-65-71-106-26.5-84.167-26.5-129.5 8.834-88.334 26.5-129c17.666-41.334 41.333-76.834 71-106.5s65-53.333 106-71 85.834-26.5 134.5-26.5 96.333 11.5 143 34.5c16.667 8.667 33.167 10.167 49.5 4.5l143-46.5-46.5 143c-5.333 16.333-3.833 32.833 4.5 49.5 23 46.333 34.5 93.833 34.5 142.5 0 48.333-8.833 93.167-26.5 134.5-35.333 82.667-94.333 141.833-177 177.5-41.333 17.667-84.5 26.5-129.5 26.5zM512 742.5c55.333 0 108.333-10.833 159-32.5 102.333-44 175-116.667 218-218 21.667-50.667 32.5-104 32.5-160s-11.333-110.333-34-163c-4.333-11-4.833-21.167-1.5-30.5l55.5-171c7.333-22 4-40-10-54s-32-17.333-54-10l-171 55.5c-9.667 3.333-19.833 2.833-30.5-1.5-52.333-23-106.667-34.5-163-34.5-56 0-109.334 11-160 33-102.334 44-175 116.667-218 218-21.666 50.667-32.5 103.667-32.5 159s10.834 108.333 32.5 159c44 102.333 116.666 175 218 218 50.334 21.667 103.334 32.5 159 32.5z" />
<glyph unicode="&#xe006;" glyph-name="home" d="M806.5-102c8.333 0 12.5 4.167 12.5 12.5v421.5c0 21-7.5 39-22.5 54l-270 271c-5 5-9.833 7.5-14.5 7.5s-9.5-2.5-14.5-7.5l-270-271c-15-15-22.5-33-22.5-54v-421.5c0-8.333 4.167-12.5 12.5-12.5h217.5v230c0 14 5 26 15 36s22.166 15.167 36.5 15.5h51c14 0 26-5 36-15s15.167-22.167 15.5-36.5v-230h217.5zM512 742.5c24.667 0 48.666-11.667 72-35l377.5-377c7.667-7.666 11.5-16.833 11.5-27.5s-3.833-19.667-11.5-27-16.833-11-27.5-11-19.5 3.5-26.5 10.5l-11.5 11.5v-376.5c0-25-8.833-46.167-26.5-63.5s-38.667-26-63-26h-589c-25 0-46.166 8.833-63.5 26.5s-26 38.667-26 63v376.5l-11.5-11.5c-7.334-7-16.334-10.5-27-10.5-11 0-20.166 3.667-27.5 11s-11 16.5-11 27.5c0 10.667 3.833 19.667 11.5 27l377.5 377c23.334 23.333 47.334 35 72 35z" />
<glyph unicode="&#xe007;" glyph-name="info" d="M435 13c0-8-4.167-12.333-12.5-13h-89.5c-14 0-26-5-36-15s-15.166-22-15.5-36c0-14 5-26.167 15-36.5 10-10 22.166-14.833 36.5-14.5h358.5c14 0 26 5 36 15s15 22 15 36-5 26.167-15 36.5c-10 10-22 14.833-36 14.5h-90c-8.333 0-12.5 4.333-12.5 13v324.5c0 13.333-4.667 24.5-14 33.5-9.333 8.667-19.333 13-30 13-11 0-86-8.5-225-25.5-25.666-2.667-38.5-15.5-38.5-38.5 0-10.667 3.833-19.667 11.5-27s16.666-11 27-11h102.5c8.334 0 12.5-4.333 12.5-13v-256zM486.5 666c-28.334 0-52.5-10-72.5-30s-30-44-30-72 10-52.333 30-73c20-20 44.166-30 72.5-30s52.5 10 72.5 30 30 44.167 30 72.5-10 52.5-30 72.5-44.167 30-72.5 30zM665.5 337.5l-0.001-260.499h26c35 0 65.167-12.5 90.5-37.5s37.667-55.167 37-90.5c0-35.333-12.333-65.5-37-90.5-25-25-55.167-37.5-90.5-37.5h-358.5c-35.334 0-65.667 12.5-91 37.5-25 25-37.334 55.167-37 90.5 0 35.333 12.334 65.5 37 90.5 25 25 55.334 37.5 91 37.5h25.5v128h-38.5c-31.666 0-58.833 11.333-81.5 34-22.334 22.667-33.5 49.5-33.5 80.5s11 57 33 78c22.334 20.667 49.667 33.333 82 38 3.667 0.667 16 2.167 37 4.5-33.334 34.667-50 76.333-50 125s17.5 90.333 52.5 125c35 35 77.166 52.5 126.5 52.5s91.667-17.5 127-52.5c35-35.333 52.5-77.333 52.5-126s-17-90.5-51-125.5c34-24.667 51-58.333 51-101z" />
<glyph unicode="&#xe008;" glyph-name="info_circle" d="M512 77c-14 0-26 5-36 15s-15 22-15 36v154c0 14 5 26 15 36s22 15 36 15 26-5 36-15 15-22 15-36v-154c0-14-5-26-15-36s-22-15-36-15zM512 384c-14 0-26 5-36 15s-15 22.167-15 36.5c0 14 5 26 15 36s22 15 36 15 26-5 36-15 15-22 15-36c0-14.333-5-26.5-15-36.5s-22-15-36-15zM512 666c-52 0-101.666-10.166-149-30.5s-88.167-47.667-122.5-82-61.667-75.167-82-122.5-30.5-97-30.5-149 10.166-101.834 30.5-149.5c41-95.666 109.166-163.667 204.5-204 47.334-20.333 97-30.5 149-30.5s101.667 10.167 149 30.5 88.167 47.5 122.5 81.5 61.667 74.834 82 122.5c20.333 47.334 30.5 97.167 30.5 149.5 0 52-10.167 101.667-30.5 149-41 95.333-109.167 163.5-204.5 204.5-47 20.333-96.667 30.5-149 30.5zM512 742.5c62.667 0 122.332-12.167 178.999-36.5 114.667-49 196.333-130.833 245-245.5 24.667-56.667 37-116.167 37-178.5 0-62.667-12.333-122.333-37-179-49.333-114.334-131-196.167-245-245.5-56.667-24.333-116.333-36.5-179-36.5s-122.333 12.167-179 36.5c-114.666 49-196.333 130.833-245 245.5-24.666 56.667-37 116.333-37 179s12.334 122.167 37 178.5c49 114.333 130.667 196.167 245 245.5 57 24.333 116.666 36.5 179 36.5z" />
<glyph unicode="&#xe009;" glyph-name="mentions" d="M512 154c35.333 0 65.5 12.333 90.5 37s37.5 55 37.5 91c0 35.333-12.5 65.5-37.5 90.5s-55.167 37.5-90.5 37.5-65.5-12.5-90.5-37.5-37.5-55.167-37.5-90.5 12.5-65.5 37.5-90.5 55.166-37.5 90.5-37.5zM806.5 77c-63.333 0-110.165 23.334-140.499 70.001-40.333-46.667-90.167-70-149.5-70-59.666 0-109.5 20-149.5 60s-60 88.333-60 145 20 105 60 145 86.166 59.833 138.5 59.5c52.333 0 97.167-15 134.5-45v6.5c0 10.667 3.833 19.833 11.5 27.5s16.833 11.5 27.5 11.5 19.667-4 27-12c7.333-7.333 11-16.333 11-27v-204.5c0-27 8.167-48.666 24.5-65s38.5-24.5 66.5-24.5 49.667 11.5 65 34.5 23 57.5 23 103.5-10.167 92.333-30.5 139c-20.333 47.333-47.667 88.167-82 122.5s-75.167 61.667-122.5 82-97 30.5-149 30.5-101.666-10.167-149-30.5-88.167-47.667-122.5-82-61.667-75.167-82-122.5-30.5-97-30.5-149 10.166-101.834 30.5-149.5c41-95.666 109.166-163.667 204.5-204 47.334-20.333 100.667-30.5 160-30.5s117.833 16 175.5 48c6 3.333 13.333 5 22 5 9 0 17.167-3.667 24.5-11s11-17.667 11-31c0-12.667-7-22.667-21-30l-1.5-1c-69-38-138.833-57-209.5-57s-134.333 12.167-191 36.5c-114.666 49-196.333 130.833-245 245.5-24.666 56.667-37 116.333-37 179s12.334 122.167 37 178.5c49 114.333 130.667 196.167 245 245.5 57 24.333 116.666 36.5 179 36.5 62.667 0 122.333-12.167 179-36.5 114.667-49 196.333-130.833 245-245.5 24.667-57 37-116.5 37-178.5s-14.833-111.667-44.5-149-70.333-56-122-56z" />
<glyph unicode="&#xe010;" glyph-name="search" d="M435 51.5c46.334 0.333 89.167 11.833 128.5 34.5s70.5 53.667 93.5 93 34.333 82.167 34 128.5c0 46.333-11.333 89.167-34 128.5-23 39.333-54.167 70.333-93.5 93s-82.167 34.167-128.5 34.5c-46.334 0-89.167-11.5-128.5-34.5-39.666-22.667-70.833-53.667-93.5-93s-34-82.167-34-128.5 11.5-89.167 34.5-128.5 54-70.5 93-93.5c39.334-22.667 82.167-34 128.5-34zM882.5-179c-10.333 0-19.166 3.833-26.5 11.5l-214 214c-61-47.666-130-71.666-207-72-45 0-88 8.834-129 26.5-83.334 36-142.333 95-177 177-17.666 40.666-26.5 83.666-26.5 129s8.834 88.5 26.5 129.5c36 83.333 95 142.5 177 177.5 41 17.333 84 26 129 26 44.666 0 87.667-8.667 129-26 82.667-35 141.833-94.167 177.5-177.5 17.667-41 26.5-84 26.5-129 0-76.666-23.833-145.667-71.5-207l214-214c7.667-7.667 11.5-16.833 11.5-27.5s-4-19.667-12-27-17.167-11-27.5-11z" />
<glyph unicode="&#xe011;" glyph-name="bolt" d="M213 230.5h196.499l-125.5-303c-3.667-8.667-5.5-14.833-5.5-18.5-0.333-3.667 1.167-5.5 4.5-5.5s9.667 3.667 19 11l516 435.5c8.333 6.667 12.5 13.5 12.5 20.5 0 9.333-8.667 13.833-26 13.5h-292.5l154.5 282h-284.5l-197.5-390c-8.666-16.333-7.333-29 4-38 6-5 14.166-7.5 24.5-7.5zM804.5 461c36.667 0 65.335-6.999 86.001-20.999s31-32.5 31-55.5c0-32-17.167-62.5-51.5-91.5l-516.5-435c-29.334-24.667-55.667-37-79-37s-41.667 6.833-55 20.5c-25.334 26.667-27.334 65.333-6 116l81 196.5h-81.5c-32 0-58.5 10-79.5 30-20.666 20-31 44.5-31 73.5 0 17.666 4.333 35.333 13 53l219 432h468l-162.5-281.5h164.5z" />
<glyph unicode="&#xe012;" glyph-name="mobile" d="M511.5 51.5c7 0 13.167-2.5 18.5-7.5 5.333-5.333 7.833-11.333 7.5-18 0-6.667-2.5-12.667-7.5-18-4.667-5.333-10.667-8-18-8s-13.334 2.667-18 8-7.166 11.333-7.5 18c0.333 7.333 2.833 13.333 7.5 18s10.5 7.167 17.5 7.5zM678.5 102.5h-333.001c-8.666 0-12.833-4.167-12.5-12.5v-89.5c0-14.333 5-26.5 15-36.5s22-15 36-15h256c14 0 26 5 36 15s15 22.167 15 36.5v89.5c0.333 8.333-3.833 12.5-12.5 12.5zM678.5 410h-333c-8.666 0-12.833-4.333-12.5-13v-230.5c0-8.666 4.167-12.833 12.5-12.5h333c8.667 0 12.833 4.167 12.5 12.5v230.5c0.333 8.667-3.833 13-12.5 13zM537.5 563.5c7.333 0.333 13.5-2.167 18.5-7.5 4.667-5.333 7-11.5 7-18.5s-2.333-13-7-18-10.833-7.5-18.5-7.5h-50.5c-7.334 0-13.5 2.667-18.5 8s-7.5 11.333-7.5 18c0 7.333 2.333 13.333 7 18s11 7.167 19 7.5h50.5zM640 614.5h-256c-14 0-26-5-36-15s-15-22.167-15-36.5v-89c0-8.667 4.167-13 12.5-13h333c8.667 0 12.833 4.333 12.5 13v89c0 14.333-4.833 26.5-14.5 36.5-10 10-22.167 15-36.5 15zM640 691.5c35.333 0 65.5-12.5 90.5-37.5s37.5-55.333 37.5-91v-562.5c0-35.334-12.5-65.5-37.5-90.5s-55.167-37.667-90.5-38h-256c-34.666 0-64.666 12.667-90 38s-38 55.5-38 90.5v562.5c0 35.333 12.5 65.667 37.5 91s55.166 37.833 90.5 37.5h256z" />
<glyph unicode="&#xe013;" glyph-name="tablet" d="M525 26c10.667 0 19.667-3.833 27-11.5s11-16.833 11-27.5-3.667-19.666-11-27-16.333-11-27-11h-26c-10.666 0-19.666 3.833-27 11.5s-11 16.833-11 27.5 3.667 19.667 11 27 16.334 11 27 11h26zM729.5 77h-435c-8.666 0-13-4.333-13-13v-114.5c0-14.333 5-26.5 15-36.5s22.166-15 36.5-15h358.5c14 0 26 5 36 15s15 22.167 15 36.5v114.5c0 8.667-4.333 13-13 13zM729.5 486.5h-435c-8.666 0-13-4.167-13-12.5v-307.5c0-8.666 4.333-12.833 13-12.5h435c8.667 0 13 4.167 13 12.5v307.5c0 8.333-4.333 12.5-13 12.5zM691.5 666h-358.5c-14 0-26-5-36-15s-15.166-22.333-15.5-37v-38c0-8.667 4.333-12.833 13-12.5h435c8.667 0 13 4.167 13 12.5v38c0 14.667-5 27-15 37s-22 15-36 15zM691.5 742.5c35 0 65.166-12.5 90.5-37.5s37.667-55.333 37-91v-664.5c0-35.333-12.333-65.667-37-91-25-25-55.167-37.5-90.5-37.5h-358.5c-35 0-65.166 12.5-90.5 37.5-25 25-37.5 55.333-37.5 91v664.5c0 35.333 12.334 65.667 37 91 25 25 55.334 37.5 91 37.5h358.5z" />
<glyph unicode="&#xe014;" glyph-name="laptop" d="M757 26c10.667 0 19.833-3.833 27.5-11.5s11.5-16.833 11.5-27.5-4-19.666-12-27c-7.333-7.333-16.333-11-27-11s-19.667 3.833-27 11.5-11 16.833-11 27.5 3.667 19.667 11 27 16.333 11 27 11zM629 26c10.667 0 19.833-3.833 27.5-11.5s11.5-16.833 11.5-27.5-4-19.666-12-27c-7.333-7.333-16.333-11-27-11s-19.667 3.833-27 11.5-11 16.833-11 27.5 3.667 19.667 11 27 16.333 11 27 11zM501 26c10.666 0 19.833-3.833 27.5-11.5s11.5-16.833 11.5-27.5-4-19.666-12-27c-7.333-7.333-16.334-11-27-11s-19.666 3.833-27 11.5-11 16.833-11 27.5 3.667 19.667 11 27 16.334 11 27 11zM373.002 26c10.666 0 19.834-3.833 27.5-11.5s11.5-16.833 11.5-27.5-4-19.666-12-27c-7.334-7.333-16.334-11-27-11s-19.666 3.833-27 11.5-11 16.833-11 27.5 3.667 19.667 11 27 16.334 11 27 11zM245.002 26c10.666 0 19.834-3.833 27.5-11.5s11.5-16.833 11.5-27.5-4-19.666-12-27c-7.334-7.333-16.334-11-27-11s-19.666 3.833-27 11.5-11 16.833-11 27.5 3.667 19.667 11 27 16.334 11 27 11zM690.5 128c10.667 0 19.833-3.667 27.5-11 7.333-7.334 11-16.334 11-27s-3.667-19.833-11-27.5-16.5-11.5-27.5-11.5-20.167 4-27.5 12c-7.333 7.333-10.833 16.333-10.5 27 0 10.667 3.667 19.667 11 27s16.333 11 27 11zM562.505 128c10.667 0 19.833-3.667 27.5-11 7.333-7.333 11-16.333 11-27s-3.667-19.833-11-27.5-16.5-11.5-27.5-11.5-20.167 4-27.5 12c-7.333 7.333-10.833 16.334-10.5 27 0 10.666 3.667 19.666 11 27s16.333 11 27 11zM434.503 127.999c10.666 0 19.834-3.667 27.5-11 7.334-7.334 11-16.334 11-27s-3.667-19.833-11-27.5-16.5-11.5-27.5-11.5-20.166 4-27.5 12c-7.334 7.333-10.834 16.333-10.5 27 0 10.667 3.667 19.667 11 27s16.334 11 27 11zM306.504 127.998c10.666 0 19.834-3.667 27.5-11 7.334-7.334 11-16.334 11-27s-3.667-19.833-11-27.5-16.5-11.5-27.5-11.5-20.166 4-27.5 12c-7.334 7.334-10.834 16.334-10.5 27 0 10.667 3.667 19.667 11 27s16.334 11 27 11zM877.505-102.002c11.667 0 17.5 5 17.5 14.999 0 2.667-0.5 5.5-1.5 8.5l-96 247.5c-2 7-6.833 10.5-14.5 10.5h-542c-7.667 0-12.5-3.5-14.5-10.5l-95.5-247.5c-1-2.667-1.5-5.333-1.5-7.999 0-11 5.833-16.167 17.5-15.5h730.5zM768.005 666h-512c-6.667 0-12.666-2.5-18-7.5s-7.833-11-7.5-18v-371.5c0-8.667 4.167-13 12.5-13h538c8.667 0 12.833 4.333 12.5 13v371.5c0 6.667-2.5 12.667-7.5 18-5.333 5-11.333 7.5-18 7.5zM768.005 742.5c28.333 0 52.5-10 72.5-30s30-44 30-72v-417c0-20.667 3.167-39.5 9.5-56.5l84.5-217c5.667-14 8.5-30.833 8.5-50.5s-8.667-37.667-26-54-40.5-24.5-69.5-24.5h-730.5c-28.666 0-51.833 8.167-69.499 24.5s-26.5 37-26.5 62c0 13 3 27.167 9 42.5l84 217c6.333 16.667 9.5 35.5 9.5 56.5v417c0 28.333 10 52.5 30 72.5s44.166 29.833 72.5 29.5h512z" />
<glyph unicode="&#xe015;" glyph-name="Bell_o" d="M512 563.5c-24 0-42.832-6.834-56.499-20.501s-20.5-32.5-20.5-56.5v-25.5c0-6.667-3-11.833-9-15.5-52-29.667-89-72.167-111-127.5s-33.166-127.167-33.5-215.5c0-6-2.167-11.333-6.5-16l-78.5-70.5c-3-2.667-4.5-6-4.5-10s3.833-6 11.5-6h230.5c9.334 0 13.334-5 12-15s-2-17.667-2-23c0-18.667 6.166-34 18.5-46s29.334-18 51-18 39.333 5.833 53 17.5 20.667 27.167 21 46.5c0.333 5.333-0.5 13-2.5 23s1.833 15 11.5 15h226.5c7.667 0 11.333 2.5 11 7.5 0 2.667-1.5 5.5-4.5 8.5l-80.5 70.5c-4.333 3.333-6.5 8.667-6.5 16 0 91-11.167 164.167-33.5 219.5s-59.333 96.667-111 124c-6 3-9 8-9 15v25.5c0 24-6.833 42.833-20.5 56.5s-32.5 20.5-56.5 20.5zM512 640c48.333 0 86.001-13 113.001-39s40.5-62.833 40.5-110.5c54.667-34.333 94-81 118-140s35.833-133.167 35.5-222.5l68.5-67c23-23.333 34.5-45.667 34.5-67s-8.333-38.334-25-51c-16.333-12.667-38.5-19.167-66.5-19.5h-179c-6.333-31-22.167-55.833-47.5-74.5s-55.333-28-90-28c-34.334 0-63.667 9.334-88 28s-39.667 43.5-46 74.5h-186.5c-28.666 0-51 6.333-67 19-16 12.334-24 29.5-24 51.5s11.5 44.334 34.5 67l68 67c0 85.334 11.834 157.167 35.5 215.5 24 58.333 63.334 106 118 143 0 48.333 13.5 86 40.5 113s64.666 40.5 113 40.5z" />
<glyph unicode="&#xe016;" glyph-name="Bell_slash" d="M742.5 102.5c0 50.333-1.666 85.667-4.999 106s-5 33.5-5 39.5 3.333 13.834 10 23.5c6.667 9.334 15.667 14 27 14 11.667 0 21.167-3.833 28.5-11.5s11.833-17.833 13.5-30.5c5-35 7.5-73.5 7.5-115.5l68.5-67c23-23.333 34.5-45.667 34.5-67s-8.333-38.334-25-51c-16.333-12.667-38.5-19.167-66.5-19.5h-179c-6.333-31-22.167-55.833-47.5-74.5s-53.333-28-84-28c-56.666 0-98.333 20.5-125 61.5-3.333 5.667-5 12.833-5 21.5s4 16.333 12 23c8.334 6.666 17.5 10.166 27.5 10.5 10.334 0.333 20.5-6.167 30.5-19.5s26.834-20 50.5-20 42.333 5.833 56 17.5 20.667 27.166 21 46.5c0.333 5.333-0.5 13-2.5 23s1.833 15 11.5 15h226.5c7.667 0 11.333 2.5 11 7.5 0 2.667-1.5 5.5-4.5 8.5l-80.5 70.5c-4.333 3.333-6.5 8.667-6.5 16zM832 563.5c10.333 0 19.333-3.834 27-11.5s11.5-16.833 11.5-27.5-3.833-19.667-11.5-27l-665.5-665c-7.667-7.667-16.833-11.5-27.5-11.5s-19.666 4-27 12-11 17-11 27 3.833 18.833 11.5 26.5l665.5 665c7.667 8 16.667 12 27 12zM512 640c48.333 0 86-13.334 113-40s40.5-64.5 40.5-113.5v-1c0-11.333-3.667-21.167-11-29.5s-16.5-12.5-27.5-12.5c-10.667 0-19.667 4.167-27 12.5s-11 18.167-11 29.5v1c0 24-6.833 42.833-20.5 56.5s-32.5 20.5-56.5 20.5-42.834-6.833-56.5-20.5-20.5-32.5-20.5-56.5v-25.5c0-6.667-3-11.833-9-15.5-51.334-29-88.334-69.833-111-122.5s-33.833-115.833-33.5-189.5c0-6.334-2.167-11.667-6.5-16l-104-100.5c-10.666-10-21.666-15-33-15s-20 3.333-26 10c-6.334 6.667-9.5 15.667-9.5 27 0 11 5.5 22 16.5 33l86 87c0 149 51.166 258.167 153.5 327.5 0 48.333 13.5 86 40.5 113s64.666 40.5 113 40.5z" />
<glyph unicode="&#xe017;" glyph-name="team_directory" d="M706.5 179.5c7-0.333 10.5 2.5 10.5 8.5 0.333 12.334-12.667 26.834-39 43.5-26 16.334-64.333 24.5-115 24.5-68 0-115.834-16-143.5-48-6.334-7.334-9.667-13.667-10-19 0-6.333 3.5-9.5 10.5-9.5h286.5zM614.5-102c24.333 0 45.5 7.334 63.5 22s29.833 32.833 35.5 54.5h-355c-49.334 0-91.667 17.5-127 52.5-35 35-52.5 77.334-52.5 127v355c-22.666-5.667-41-17.667-55-36s-21.166-39.333-21.5-63v-410c0-28 10-52 30-72s44.166-30 72.5-30h409.5zM563 538c-23.333 0-42-7-56-21s-20.834-34-20.5-60c0-26 8.5-48.833 25.5-68.5 34-39.333 68.167-39.333 102.5 0 17 19.667 25.5 42.5 25.5 68.5s-7 46-21 60-32.667 21-56 21zM420.501 102.501c-58.334 0-87.5 26.334-87.5 79 0 28.666 12.334 56.333 37 83 25 26.667 58.5 46.5 100.5 59.5-40.666 41.333-61 86-61 134 0.333 48 14.5 86 42.5 114s65 42.167 111 42.5c46 0 83-14 111-42s42.333-66.667 43-116c0-49.333-19.667-93.667-59-133 41.667-13 74.667-32.834 99-59.5s36.5-55.833 36.5-87.5c0-49-29-73.667-87-74h-286zM870.5 154.002v409.5c0 28.333-10 52.5-30 72.5s-44.167 30-72.5 30h-409.5c-28.334 0-52.5-10-72.5-30s-30-44.167-30-72.5v-409.5c0-28.333 10-52.5 30-72.5s44.166-30 72.5-30h409.5c28.333 0 52.5 10 72.5 30s30 44.167 30 72.5zM768 742.5c49.333 0 91.5-17.5 126.5-52.5s52.5-77.167 52.5-126.5v-409.5c0-44.667-14.833-84-44.5-118s-66.5-54-110.5-60c-5.333-44-25-80.833-59-110.5s-73.5-44.5-118.5-44.5h-409.5c-49.334 0-91.667 17.5-127.001 52.5-35 35-52.5 77.167-52.5 126.5v410c0 45 14.834 84.333 44.5 118s66.5 53.5 110.5 59.5c5.667 44 25.5 80.833 59.5 110.5s73.5 44.5 118.5 44.5h409.5z" />
<glyph unicode="&#xe018;" glyph-name="Cloud_upload" d="M524.5 384c10 0 19.167-3.834 27.5-11.5l153.5-153c7.667-7.666 11.5-16.833 11.5-27.5s-3.667-19.667-11-27-16.333-11-27-11-19.667 3.667-27 11l-89 87.5v-214c0-11.333-3.667-20.333-11-27-6.667-7.667-15.667-11.5-27-11.5s-20.667 3.667-28 11-10.834 16.5-10.5 27.5v214l-88-87.5c-7.666-7.333-16.833-11-27.5-11s-19.666 4-27 12-11 17-11 27 3.667 18.833 11 26.5l153.5 153c8 7.667 17 11.5 27 11.5zM588 563.5c-50 0-96.666-15.5-140-46.5s-74.834-71.667-94.5-122c-3-8.333-8.5-10.333-16.5-6-16.666 8-34.666 11.833-54 11.5-35.334 0-65.5-13.167-90.5-39.5s-37.5-57-37.5-92 10.166-65 30.5-90c5.667-7.334 3.833-12-5.5-14-29.666-5.666-54.333-21-73.999-46-19.334-25-29-55-29-90s12.5-65.666 37.5-92 55.334-39.333 91-39h562.5c49.333 0 91.5 18.333 126.5 55s52.5 80.833 52.5 132.5c0 34-8 65.5-24 94.5s-37.5 51.833-64.5 68.5c-5.667 3.667-8.167 9.5-7.5 17.5s1 16.5 1 25.5c0 49-11.667 94.5-35 136.5s-54.833 75-94.5 99c-39.667 24.333-84.5 36.5-134.5 36.5zM929 292.5c63.333-53 95.001-123.834 95.001-212.501 0-44-11.5-86.333-34.5-127s-54.167-72.833-93.5-96.5-82-35.5-128-35.5h-562.5c-56.666 0-105.166 20.666-145.5 62-40 41.334-60 91.334-60 150 0 34.666 7.833 67.333 23.5 98s36.833 55.5 63.499 74.5c-5.666 20-8.5 40.167-8.5 60.5 0 58.333 20 108.167 60 149.5s88.166 62 144.5 62c5.334 0 13.5-0.333 24.5-1 30.334 50.333 70.834 90.167 121.5 119.5s105.833 44 165.5 44c59.333 0 114.833-15.5 166.5-46.5 52-31 93-73.167 123-126.5s45-111.5 45-174.5z" />
<glyph unicode="&#xe019;" glyph-name="Cloud_download" d="M486.5 346c0 10.667 3.667 19.667 11 27 7 7.333 16.167 11 27.5 11s20.333-3.667 27-11c7.667-6.667 11.333-15.667 11-27v-214l89 87.5c7.333 7.667 16.333 11.5 27 11.5s19.667-3.833 27-11.5c7.333-7.333 11-16.5 11-27.5s-3.833-20-11.5-27l-153.5-153c-8.667-8-18-12-28-12s-18.834 4-26.5 12l-153.5 153c-7.666 7.667-11.333 16.5-11 26.5 0 10 3.667 19.167 11 27.5 8 8 17.166 12 27.5 12s19.334-3.833 27-11.5l88-87.5v214zM588 563.5c-50 0-96.666-15.5-140-46.5s-74.834-71.667-94.5-122c-3-8.333-8.5-10.333-16.5-6-16.666 8-34.666 11.833-54 11.5-35.334 0-65.5-13.167-90.5-39.5s-37.5-57-37.5-92 10.166-65 30.5-90c5.667-7.334 3.833-12-5.5-14-29.666-5.666-54.333-21-73.999-46-19.334-25-29-55-29-90s12.5-65.666 37.5-92 55.334-39.333 91-39h562.5c49.333 0 91.5 18.333 126.5 55s52.5 80.833 52.5 132.5c0 34-8 65.5-24 94.5s-37.5 51.833-64.5 68.5c-5.667 3.667-8.167 9.5-7.5 17.5s1 16.5 1 25.5c0 49-11.667 94.5-35 136.5s-54.833 75-94.5 99c-39.667 24.333-84.5 36.5-134.5 36.5zM929 292.5c63.333-53 95.001-123.835 95.001-212.501 0-44-11.5-86.334-34.5-127s-54.167-72.833-93.5-96.5-82-35.5-128-35.5h-562.5c-56.666 0-105.166 20.667-145.5 62-40 41.333-60 91.333-60 150 0 34.667 7.833 67.333 23.5 98s36.833 55.5 63.499 74.5c-5.666 20-8.5 40.166-8.5 60.5 0 58.334 20 108.167 60 149.5s88.166 62 144.5 62c5.334 0 13.5-0.333 24.5-1 30.334 50.333 70.834 90.167 121.5 119.5s105.833 44 165.5 44c59.333 0 114.833-15.5 166.5-46.5 52-31 93-73.167 123-126.5s45-111.5 45-174.5z" />
<glyph unicode="&#xe020;" glyph-name="cog_o" d="M512 384c-28 0-52-10-72-30s-30-44-30-72 10-52 30-72 44-30.167 72-30.5c28 0 52 10 72 30 20 20.333 30 44.5 30 72.5s-10 52-30 72-44 30-72 30zM512 461c49.333 0 91.5-17.5 126.5-52.5s52.5-77.167 52.5-126.5-17.5-91.667-52.5-127-77.167-52.834-126.5-52.5c-49.334 0-91.5 17.5-126.5 52.5-35 35.334-52.5 77.667-52.5 127s17.5 91.5 52.5 126.5 77.166 52.5 126.5 52.5zM503.5 671c-7.334 0-14.667-2.667-22-8s-12.167-11.333-14.5-18l-19-57.5c-5.666-17.333-17-29.5-34-36.5l-18.5-7.5c-17-6.667-33.666-5.833-50 2.5l-53.5 28c-6 3.333-13.666 4.333-23 3s-16.167-4.333-20.5-9l-18-17.5c-4.667-4.667-7.833-11.5-9.5-20.5s-1-16.667 2-23l28-54c8.334-16.667 8.834-33.333 1.5-50l-8.5-19c-6.667-16.667-18.833-27.667-36.5-33l-58-18c-6.333-2-12.167-6.667-17.5-14s-8.334-14.5-9-21.5v-24.5c0-7.333 2.667-14.667 8-22s11.334-12.167 18-14.5l57.5-18c17-5.667 29-17.167 36-34.5l8-19c6.666-17 5.833-33.5-2.5-49.5l-28.5-54c-3.333-6-4.333-13.5-3-22.5s4.5-16 9.5-21l17-18c4.667-4.667 11.666-7.833 21-9.5s16.834-0.833 22.5 2.5l54.5 27.5c16.666 8.333 33.166 8.833 49.5 1.5l19-8c16.334-6.333 27.5-18.667 33.5-37l18-57.5c2-6.333 6.666-12.167 14-17.5s14.334-8.5 21-9.5h24.5c7.333 0 14.667 2.667 22 8s12.167 11.5 14.5 18.5l18.5 57c6 17.667 17.5 29.833 34.5 36.5l18.5 7.5c17 6.667 33.667 5.833 50-2.5l53.5-28c6-3.333 13.667-4.333 23-3s16.167 4.333 20.5 9l18 17.5c4.667 4.667 7.833 11.5 9.5 20.5s1 16.833-2 23.5l-28 54c-8.333 16.667-8.833 33.167-1.5 49.5l8.5 19c6.667 16.667 18.833 27.667 36.5 33l58 18c6.333 2 12.167 6.667 17.5 14s8.333 14.667 9 22v24c0 7.334-2.667 14.667-8 22s-11.333 12.167-18 14.5l-57.5 19c-17.333 5.667-29.333 16.833-36 33.5l-8 19c-6.667 17-5.833 33.5 2.5 49.5l28.5 54c3.333 6 4.333 13.5 3 22.5s-4.5 16-9.5 21l-17 18c-4.667 4.667-11.667 7.833-21 9.5s-17 0.833-23-2.5l-54-27.5c-16.667-8.333-33.167-8.833-49.5-1.5l-19 8c-16.333 6.333-27.5 18.667-33.5 37l-18 58c-2 6.333-6.667 12.167-14 17.5s-14.5 8.333-21.5 9h-24zM528.5 742.5c22.667-0.333 43.833-7.832 63.5-22.499s33-32.833 40-54.5l15.5-52.5 9-3.5 48 25c20 10 42.333 13 67 9s44.833-14 60.5-30l17-17.5c15.667-16 25.333-36.333 29-61s0.333-47-10-67l-26-48 3.5-7.5 52-17.5c21.667-7.333 39.667-21 54-41s21.5-41.334 21.5-64v-24.5c0-22.666-7.5-43.833-22.5-63.5s-33.333-33-55-40l-52-16-4-8.5 25-48c10.333-20.333 13.5-42.833 9.5-67.5s-14-44.667-30-60l-17.5-17c-16.333-16-36.833-25.833-61.5-29.5s-46.833-0.167-66.5 10.5l-48.5 25.5-7.5-3-17.5-52c-7.333-21.667-21-39.667-41-54s-41.333-21.5-64-21.5h-24.5c-22.666 0-43.833 7.5-63.5 22.5s-33 33.333-40 55l-15.5 52-9 3.5-48-24.5c-20-10.333-42.334-13.5-67-9.5s-44.833 14-60.5 30l-17.5 17.5c-15.666 16.333-25.333 36.833-29 61.5s-0.167 46.833 10.5 66.5l26 48-3.5 7.5-52 17.5c-21.666 7.334-39.666 21-54 41s-21.5 41.334-21.5 64v24.5c0 22.666 7.5 43.833 22.5 63.5s33.334 33 55 40l52 16 4 8.5-25.5 48.5c-10 20-12.834 42.333-8.5 67 4 24.667 13.834 44.833 29.5 60.5l17.5 17c16.334 15.667 36.834 25.333 61.5 29s46.833 0.167 66.5-10.5l48.5-25.5 7.5 3c4.333 11.333 10.167 28.333 17.5 51s21 41 41 55 41.334 21.167 64 21.5h24.5z" />
<glyph unicode="&#xe021;" glyph-name="cogs" d="M698 108c14.667 0 27.334-5.167 38-15.5s15.833-23 15.5-38c0-15-5.167-27.833-15.5-38.5s-23-16-38-16-27.833 5.333-38.5 16-16 23.5-16 38.5 5.333 27.667 16 38c11 10.333 23.833 15.5 38.5 15.5zM795 153c-31.333 0-53.332 15.5-65.999 46.5l-11 28-39-1-12-28c-11-30.666-32.667-46-65-46-3.333 0-7 0.333-11 1l-32 4.5-19.5-34 18.5-23c10.667-13 16-28.166 16-45.5s-5.333-33.167-16-47.5l-19.5-25 19.5-32 31 4c4.667 0.667 11.333 1 20 1s19.167-4.333 31.5-13c12.667-8.667 21.667-19.833 27-33.5l11.5-27.5 39 0.5 11.5 28c6.667 16.334 16.833 28.5 30.5 36.5s29 10.834 46 8.5l31-4.5 20 34.5-18.5 23c-10.667 12.666-15.833 27.666-15.5 45 0 17.334 5.167 33.167 15.5 47.5l19.5 25-19.5 32-30.5-4c-5.333-0.667-9.667-1-13-1zM387.502 422.5c17.666 0 32.835-6.165 45.502-18.499 12.666-12 18.833-27 18.5-45 0-18-6.166-33.167-18.5-45.5-12-12.333-27-18.5-45-18.5s-33.166 6-45.5 18c-12.334 12.667-18.667 27.833-19 45.5s5.833 32.833 18.5 45.5 27.833 18.833 45.5 18.5zM339.005 515c-13.666 0-25.333 3.164-35 9.498l-28 18.5c-2 1.667-4.167 2.5-6.5 2.5s-4.667-0.833-7-2.5l-23-18.5c-3-2.667-4.5-4.833-4.5-6.5s0.333-3.667 1-6l10.5-31c2-6 3-14.333 3-25s-3.833-22.167-11.5-34.5c-7.667-12-19-20.5-34-25.5l-32-11.5c-5-1.667-7.5-5.167-7.5-10.5l-0.5-28c0-5 2.5-8.667 7.5-11l31.5-11.5c14-5 24.834-13.166 32.5-24.5s11.5-22.667 11.5-34c0-11-1.333-19.833-4-26.5l-11-31.5c-0.667-2-1-3.833-1-5.5s1.5-3.833 4.5-6.5l22.5-18c3-2.333 5.5-3.5 7.5-3.5s4 0.667 6 2l28.5 17.5c10 6.334 21.5 9.667 34.5 10 25 0 43.666-10.5 56-31.5l17.5-28c3-4.333 7-6 12-5l29 6c5 1.333 7.834 4.5 8.5 9.5l5 33c2.333 18 10.834 32.667 25.5 44s31 16.167 49 14.5l33.5-4h2c4 0 7.167 2 9.5 6l13 25.5c1 2 1.5 3.833 1.5 5.5s-1.167 4.167-3.5 7.5l-23 24c-12.667 12.666-19 28.333-19 47s6.667 34.5 20 47.5l23.5 23.5c2.333 2.667 3.5 5 3.5 7s-0.5 4-1.5 6l-12 26c-2.333 4-4.833 6.167-7.5 6.5l-43-4c-17.333-0.333-32.334 5.167-45 16.5s-20 25.667-22 43l-3 33c-0.333 3.333-1 5.667-2 7s-3.333 2.167-7 2.5l-29 6.5-3 1c-3.333 0-6.5-2-9.5-6l-17-27.5c-14-20.333-33.166-30.5-57.5-30.5zM840.505-111.001c-3 0-5.168 0.166-6.501 0.5l-38 5h-1c-4 0-6.667-2-8-6l-14-34.5c-9.667-22-25.833-33-48.5-33h-51.5c-10.333 0-20.167 3-29.5 9s-16 14-20 24l-13 33.5c-2.333 5.667-6.667 8-13 7l-36.5-6c-1.667-0.333-4.5-0.5-8.5-0.5-19.667 0-34.5 8.834-44.5 26.5l-25.5 43.5c-12.334 22.333-11 42 4 59l23.5 30c2.333 2.667 3.5 5.333 3.5 7.999s-1 5.333-3 8l-23 28.5c-0.667 1.333-1.333 2.333-2 3-7.666-5.334-15.333-8.834-23-10.5l-29.5-6c-4-1-10.334-1.5-19-1.5s-18.666 2.833-30 8.5c-12 5.666-21.5 14.5-28.5 26.5l-17 27.5c-2 2.667-4.167 3.333-6.5 2l-29-17.5c-12-7.666-25.5-11.5-40.5-11.5s-29.5 5.5-43.5 16.5l-22.5 18c-19.666 15.334-28.333 36.834-26 64.5 0.333 4 2.833 13.167 7.5 27.5s7.167 22.167 7.5 23.501c0 1.333-1.167 2.5-3.5 3.5l-31.5 11.5c-14 4.667-25.5 13.666-34.5 27s-13.5 27.333-13.5 42v29c0 14.333 4.667 28 14 41s21 22 35 27l32 11c4.333 1.333 5.833 4 4.5 8l-11 31.5c-2 6.333-3 13.5-3 21.5 0 24.667 9.166 44.167 27.5 58.5l23.5 17.5c13.334 10.333 27.334 15.5 42 15.5s28.5-3.833 41.5-11.5l29-18c1-0.667 2.167-1 3.5-1s2.5 1 3.5 3l18 28c14.334 22.333 35 33.333 62 33 4 0 9.5-0.667 16.5-2l28.5-7c14.334-3.333 26.667-11 37-23s16.333-25.333 18-40l3.5-33c0.667-3 2.333-4.333 5-4l38 3.5c14.333 1.333 28-2 41-10s22.5-18.333 28.5-31l12-26c4.333-10 6.5-22.667 6.5-38s-7.167-30.333-21.5-45l-23.5-23.5c-1.333-1.333-2-2.833-2-4.5s0.5-3 1.5-4l24-23.5c11-11.333 17.333-25.833 19-43.5 5.667 1.667 11 2.5 16 2.5l51 1c10.333 0 20.167-3.167 29.5-9.5s15.833-14.333 19.5-24l14-34c2-5 6-7.333 12-7l43 6.5c1.333 0.333 3.5 0.5 6.5 0.5 17.667 0 31.333-8.833 41-26.5l25-44c5-8.667 7.5-18.333 7.5-29s-3.667-20.5-11-29.5l-23.5-30.5c-2.333-2.667-3.5-5.333-3.5-8s1-5.333 3-8l23-28.5c13.667-18.666 14.833-38.5 3.5-59.5l-25.5-43.5c-9.667-17-25.333-25.5-47-25.5z" />
<glyph unicode="&#xe022;" glyph-name="Key" d="M358.5 154c-14 0-26-5-36-15-10.334-10-15.5-22.167-15.5-36.5 0-14 5-26 15-36s22.166-15 36.5-15c14 0 26 5 36 15s15 22 15 36c0 14.333-5 26.5-15 36.5s-22 15-36 15zM358.5 230.5c35.334 0 65.5-12.5 90.5-37.5s37.5-55.167 37.5-90.5-12.5-65.5-37.5-90.5-55.166-37.5-90.5-37.5-65.5 12.5-90.5 37.5-37.5 55.167-37.5 90.5 12.5 65.5 37.5 90.5 55.166 37.5 90.5 37.5zM767.5 563.5c-14 0-26-5-36-15l-268.5-269.5c-32 18.667-66.834 28.167-104.5 28.5-56.666 0-105-20-145-60s-60-88.333-60-145 20-105 60-145c40-39.667 88.334-59.5 145-59.5s105 20 145 60 59.833 88.167 59.5 144.5c0 38-9.333 72.833-28 104.5l151.5 151.5 108.5-108.5 57 56.5-109 108 61.5 61.5c9.667 10 14.5 22 14.5 36s-4.833 26.167-14.5 36.5c-10.667 10-23 15-37 15zM768.5 640c35 0 65-12.334 90-37.001s37.5-55 37.5-91c0-35.333-12.5-65.5-37.5-90.5l-7-7 86-86c6.333-6.333 9.5-13.833 9.5-22.5s-3.167-16.167-9.5-22.5l-120.5-120c-6.333-6.333-13.833-9.5-22.5-9.5s-16.167 3.167-22.5 9.5l-86 86-60-60c9.333-27 14-57.833 14-92.5s-7.5-69.333-22.5-104c-30.667-70.667-80.5-120.5-149.5-149.5-34.666-15-71.166-22.5-109.5-22.5s-74.834 7.5-109.5 22.5c-70.334 30.333-120.334 80.167-150 149.5-15 34.667-22.334 71.167-22 109.5 0 38.333 7.334 74.833 22 109.5 30.334 70 80.334 120 150 150 63 27.333 128.333 30.333 196 9l232.5 232c25.667 24.667 56 37 91 37z" />
<glyph unicode="&#xe023;" glyph-name="Calendar" d="M717 77c14 0 26.167-5 36.5-15 10-10 15-22 15-36s-5-26-15-36c-10.333-10-22.5-15.167-36.5-15.5-14 0-26 5-36 15-10 10.333-15 22.5-15 36.5s5 26 15 36 22 15 36 15zM512 77c14 0 26.167-5 36.5-15 10-10 15-22 15-36s-5-26-15-36c-10.333-10-22.5-15.167-36.5-15.5-14 0-26 5-36 15-10 10.333-15 22.5-15 36.5s5 26 15 36 22 15 36 15zM307.5-25.5c-14.334 0-26.5 5-36.5 15-10 10.333-14.834 22.5-14.5 36.5-0.333 14 4.5 26 14.5 36s22 15 36 15 26.334-5 37-15c10-10 15-22 15-36s-5-26-15-36-22.166-15.167-36.5-15.5zM717 230.5c14 0.333 26.167-4.5 36.5-14.5 10-10 15-22 15-36s-5-26.167-15-36.5c-10.333-10.333-22.5-15.5-36.5-15.5s-26 5-36 15-15 22-15 36 5 26.167 15 36.5c10 10 22 15 36 15zM512 230.5c14 0.333 26.167-4.5 36.5-14.5 10-10 15-22 15-36s-5-26.167-15-36.5c-10.333-10.333-22.5-15.5-36.5-15.5s-26 5-36 15-15 22-15 36 5 26.167 15 36.5c10 10 22 15 36 15zM256.5 179c-0.333 14 4.5 26.167 14.5 36.5 10 10 22 15 36 15s26.334-4.833 37-14.5c10-10 15-22 15-36s-5-26.167-15-36.5-22.166-15.5-36.5-15.5-26.5 5-36.5 15-14.834 22-14.5 36zM717 384c14 0 26.167-5 36.5-15 10-10 15-22 15-36s-5-26-15-36c-10.333-10-22.5-15-36.5-15s-26 5-36 15-15 22-15 36 5 26 15 36 22 15 36 15zM512 384c14 0 26.167-5 36.5-15 10-10 15-22 15-36s-5-26-15-36c-10.333-10-22.5-15-36.5-15s-26 5-36 15-15 22-15 36 5 26 15 36 22 15 36 15zM220.5 653c0-25.667-13.999-38.5-41.999-38.5-13.333 0-25-5-35-15s-15-22.167-15-36.5v-613.5c0-14.333 5-26.5 15-36.5s22-15 36-15h665.5c14.333 0 26.5 5 36.5 15s15 22.167 15 36.5v613.5c0 14.333-5 26.5-15 36.5-10.333 10-22.167 15-35.5 15-28.667 0-42.5 12.833-41.5 38.5 0 25.667 13.5 38.5 40.5 38.5 35.333 0 65.5-12.5 90.5-37.5s37.667-55.333 38-91v-613.5c0.333-35-12.167-65.167-37.5-90.5s-55.667-38-91-38h-665.5c-35 0-65 12.5-90 37.5s-37.666 55.333-38 91v613.5c0 35.333 12.5 65.667 37.5 91s55.166 37.833 90.5 37.5c12.666 0 22.666-3.333 30-10s11-16.167 11-28.5zM653 768c-10.667 0-19.834-3.667-27.501-11s-11.333-16.333-11-27v-128c0.333-10.667 4.167-19.833 11.5-27.5s16.333-11.5 27-11.5 19.667 4 27 12c7.333 7.333 11 16.333 11 27v128c0 10.667-3.667 19.667-11 27s-16.333 11-27 11zM371 768c-10.666 0-19.666-3.667-27-11s-11-16.333-11-27v-128c0-10.667 3.667-19.833 11-27.5s16.334-11.5 27-11.5 19.833 4 27.5 12c7.666 7.333 11.333 16.333 11 27v128c0 10.667-3.667 19.667-11 27-7.666 7.333-16.833 11-27.5 11zM653 845c31.333 0 58.334-11.333 81-34s34-49.667 34-81v-128c0-31.667-11.333-58.833-34-81.5s-49.667-34-81-34-58.5 11.333-81.5 34c-22.667 22.667-34 49.833-34 81.5v128c0 31.333 11.333 58.333 34 81s49.833 34 81.5 34zM371 845c31.666 0 58.833-11.333 81.5-34s34-49.667 34-81v-128c0-31.667-11.334-58.833-34-81.5s-49.833-34-81.5-34c-31.334 0-58.334 11.333-81 34s-34 49.833-34 81.5v128c0 31.333 11.334 58.333 34 81s49.666 34 81 34z" />
<glyph unicode="&#xe024;" glyph-name="Pencil" d="M263.5 154.5c-7.667 7.667-13.334 6.167-17.001-4.5l-63-184.5c-1.667-5-1.333-8.833 1-11.5s6-3 11-1l184.5 63c10.334 4 11.667 9.833 4 17.5zM581 496l-266-266.5c-5.666-6-5.666-12 0-18l126.5-127c6-5.667 12-5.667 18 0l266 266.5zM721 614.5c-14 0-26-4.833-36-14.5l-49.5-50 144.5-145 49.5 50c10 10 15 22.167 15 36.5s-5 26.333-15 36l-71.5 71.5c-10.667 10.333-23 15.5-37 15.5zM721 691.5c35.333 0 65.667-12.666 91-38l71.5-71.5c25.333-25.333 38-55.667 38-91s-12.5-65.5-37.5-90.5l-431.5-431.5c-9.334-9.333-20.334-16.333-33-21l-208.5-71c-9.334-3-18.5-4.667-27.5-5-27.666 0-49.666 11.167-66 33.5s-19.834 47.333-10.5 75l71.5 209c4.667 13 11.666 24.167 21 33.5l431.5 431c24.667 25 54.667 37.5 90 37.5z" />
<glyph unicode="&#xe025;" glyph-name="lightbulb_o" d="M409.5-140.5c0 11 3.667 20.167 11 27.5s16.667 11 28 11h127c11.333 0 20.667-3.667 28-11s11-16.667 11-28-3.667-20.333-11-27c-7.333-7.333-16.667-11-28-11h-127c-11.334 0-20.667 3.667-28 11s-11 16.5-11 27.5zM512 666c-30.666 0-60.501-6.5-89.501-19.5s-53.5-29.833-73.5-50.5c-44.666-46-67.166-96.167-67.5-150.5 0-40.333 8.166-76 24.5-107s47.167-68.833 92.5-113.5l11.5-11.5c17-16 27.666-28.667 32-38 4-9 6-18.167 6-27.5v-84c0-3.667 1.333-6.667 4-9s5.666-3.5 9-3.5h102c3.333 0 6.333 1.167 9 3.5s4 5.333 4 9v84.5c0 16 3.667 28.333 11 37s12.167 14.167 14.5 16.5l12.5 12c6 5.667 9.833 9.5 11.5 11.5 45 44.667 75.833 82.5 92.5 113.5 16.333 31 24.5 63.167 24.5 96.5 0 33-6.167 62.833-18.5 89.5-26 55.667-66.833 96.167-122.5 121.5-29 13-58.833 19.5-89.5 19.5zM449.499-25.5c-23 0-41.834 7.334-56.501 22s-22 33.5-22 56.5v76.5c0 11-7 23.167-21 36.5-56 53.333-94.166 99.667-114.5 139s-30.5 81.833-30.5 127.5 8.166 86.5 24.5 122.5c33.666 74 88 128 163 162 38.334 17 78.167 25.5 119.5 25.5s81.167-8.5 119.5-25.5c38.333-17.333 71-39.667 98-67s48.667-59 65-95 24.5-77 24.5-123-10.167-88.333-30.5-127c-20.333-39.333-58.5-85.667-114.5-139-14-13.334-21-25.5-21-36.5v-76.5c0-52.334-26.167-78.5-78.5-78.5h-125z" />
<glyph unicode="&#xe026;" glyph-name="magic" d="M128-40.5c0-7 2.5-13 7.5-18l36-36c5-5 11.166-7.5 18.5-7.5s13.334 2.333 18 7l288.5 288.5-72 73-289.5-289.5c-4.667-4.667-7-10.5-7-17.5zM819 282c7.333 0 13.5-2.5 18.5-7.5s7.5-11.166 7.5-18.5v-51h51c7.333 0 13.333-2.5 18-7.5s7.167-11.166 7.5-18.5c0-7.334-2.5-13.334-7.5-18-5-5-11-7.334-18-7h-51v-51.5c0-7.666-2.5-13.833-7.5-18.5s-11.167-7-18.5-7-13.333 2.5-18 7.5-7.167 11-7.5 18v51.5h-51c-7.333 0-13.5 2.333-18.5 7s-7.333 10.833-7 18.5c0 7.666 2.333 13.833 7 18.5s10.833 7 18.5 7h51v51c0.333 7.333 2.833 13.5 7.5 18.5s10.667 7.5 18 7.5zM527 358c-7 0-13.167-2.5-18.5-7.5l-47.5-47.5 72-73 48 48c4.667 4.667 7 10.667 7 18s-2.5 13.333-7.5 18l-35.5 36c-5 5.333-11 8-18 8zM526.5 435.5c27.667 0 51.835-10.5 72.501-31.5l36-35.5c20.333-20.333 30.5-44.5 30.5-72.5s-10-52-30-72l-373.5-373.5c-19.666-19.667-43.666-29.5-72-29.5s-52.667 10-73.001 30l-35.5 36c-20.334 20-30.5 44.167-30.5 72.5s10 52.333 30 72l373 373c20.666 20.667 44.833 31 72.5 31zM845 666c7.333 0 13.334-2.5 18-7.5s7.167-11.167 7.5-18.5v-76.5h76.5c7.333 0 13.5-2.5 18.5-7.5 5-4.667 7.5-10.667 7.5-18s-2.5-13.5-7.5-18.5-11.167-7.5-18.5-7.5h-76.5v-76.5c0-7.333-2.5-13.5-7.5-18.5-4.667-4.667-10.667-7-18-7s-13.5 2.333-18.5 7-7.5 10.833-7.5 18.5v76.5h-76.5c-7.333 0-13.5 2.5-18.5 7.5s-7.333 11.167-7 18.5c0 7.333 2.333 13.333 7 18s10.833 7.167 18.5 7.5h76.5v76.5c0 7.333 2.5 13.5 7.5 18.5s11.167 7.5 18.5 7.5zM409.502 742.5c7.334 0 13.5-2.501 18.5-7.501s7.334-11 7-18v-77h77c7.333 0 13.333-2.333 18-7s7.167-10.833 7.5-18.5c0-7.667-2.5-13.833-7.5-18.5s-11-7-18-7h-77v-77c0-7.333-2.333-13.333-7-18s-10.833-7.167-18.5-7.5c-7.666 0-13.833 2.5-18.5 7.5s-7 11-7 18v77h-77c-7.334 0-13.334 2.5-18 7.5s-7.166 11.167-7.5 18.5c0 7.333 2.5 13.333 7.5 18 5 5 11 7.333 18 7h77v77c0 7.333 2.333 13.333 7 18s10.833 7.167 18.5 7.5z" />
<glyph unicode="&#xe027;" glyph-name="external_link" d="M396.5 435.5c26 0 38.834-12.834 38.5-38.5 0-25.667-12.834-38.5-38.5-38.5h-63c-28.334 0-52.5-10-72.5-30s-30.166-44.166-30.5-72.5v-256c0-28 10-52 30-72s44.166-30 72.5-30h256c28 0 52 10 72 30s30 44.166 30 72.5v63c0 26 12.833 39 38.5 39s38.5-13 38.5-39v-63c0-49-17.5-91.167-52.5-126.5s-77.167-53-126.5-53h-256c-49.334 0-91.667 17.5-127 52.5-35 35-52.5 77.166-52.5 126.5v256c-0.333 49.334 17.166 91.667 52.5 127s77.834 52.833 127.5 52.5h63zM832 538c10.667 0 19.669-3.832 27.002-11.498s11.167-16.667 11.5-27v-230c0-11-3.833-20.166-11.5-27.5-7.333-7.334-16.333-11.167-27-11.5-10.667 0-19.667 3.833-27 11.5s-11.167 16.833-11.5 27.5v137l-318-318c-8.334-7.666-17.667-11.5-28-11.5s-19.167 3.833-26.5 11.5-11.167 16.833-11.5 27.5c0 10.667 3.833 19.5 11.5 26.5l318.5 318.5h-137.5c-11.333 0-20.667 3.833-28 11.5s-11 16.833-11 27.5 3.833 19.667 11.5 27 16.833 11 27.5 11h230z" />
<glyph unicode="&#xe028;" glyph-name="external_link_square" d="M653 358.5c10.667-0.333 19.666-4.165 27-11.498s11-16.5 11-27.5v-229c0-11-3.667-20.334-11-28s-16.333-11.5-27-11.5-19.833 4-27.5 12c-7.667 7.667-11.333 16.833-11 27.5v137l-216-216c-7.666-7.667-16.833-11.5-27.5-11.5s-19.666 3.833-27 11.5-11 16.833-11 27.5 3.667 19.5 11 26.5l216 216.5h-137c-11.334 0-20.667 3.667-28 11s-11 16.334-11 27 3.833 19.833 11.5 27.5 16.833 11.333 27.5 11h230zM691.5 461h-359c-28 0-52-10-72-30s-30-44-30-72v-359.5c0-27.667 10-51.5 30-71.5s44-30 72-30h359c28 0 52 10 72 30s30 43.833 30 71.5v359.5c0 28-10 52-30 72s-44 30-72 30zM691.5 538c49 0 91.167-17.5 126.5-52.5s52.833-77.167 52.5-126.5v-359.5c0-49-17.5-91-52.5-126s-77.167-52.5-126.5-52.5h-359c-49 0-91.166 17.5-126.5 52.5-35 35-52.5 77-52.5 126v359.5c0 48.667 17.5 90.667 52.5 126s77.166 53 126.5 53h359z" />
<glyph unicode="&#xe029;" glyph-name="Lock_o" d="M742.5-51.5v180c0 14-5 26-15 36s-22 15-36 15h-359c-14 0-26-5-36-15s-15-22-15-36v-180c0-14 5-26 15-36s22-14.833 36-14.5h359c14.333 0 26.5 4.833 36.5 14.5 9.667 10 14.5 22 14.5 36zM512 461c-38.666 0-69.666-12-93-36s-35-55.5-35-94.5v-74.5h256v74.5c0 39-11.667 70.5-35 94.5s-54.333 36-93 36zM819 128.5v-180c0-38.333-11.667-69.167-35-92.5s-54.167-35-92.5-35h-359c-38.334 0-69.167 11.667-92.5 35s-35 54.167-35 92.5v180c0 33.667 9.166 61.833 27.5 84.5s43.167 36.333 74.5 41v76.5c0 60 19.334 109.5 58 148.5 38.666 39.333 87.666 59 147 59 60 0 109.167-19.667 147.5-59s57.5-88.833 57.5-148.5v-76.5c31.333-4.667 56.167-18.333 74.5-41s27.5-50.833 27.5-84.5z" />
<glyph unicode="&#xe030;" glyph-name="unlock" d="M691 128.5c0 14-4.833 26-14.5 36-10 10-22 15-36 15h-308c-14 0-26-5-36-15s-15-22-15-36v-180c0-14 5-26 15-36s22-14.833 36-14.5h308c14.333 0 26.333 5 36 15s14.5 21.833 14.5 35.5v180zM512 330.5c0 59.667 19.333 109.167 58 148.5s87.667 59 147 59c60 0 109.167-19.667 147.5-59s57.333-88.833 57-148.5v-54c0-30.667-12.833-46-38.5-46s-38.333 15.333-38 46v54c0 39-11.667 70.5-35 94.5s-54.333 36-93 36-69.667-12-93-36-35-55.5-35-94.5v-74.5h51.5c38.333 0 69.167-11.667 92.5-35s35-54.167 35-92.5v-180c0-38.333-11.667-69.167-35-92.5s-54.167-35-92.5-35h-308c-38.334 0-69.167 11.667-92.5 35s-35 54.167-35 92.5v180c0 38.334 11.666 69.167 35 92.5s54.167 35 92.5 35h179.5v74.5z" />
<glyph unicode="&#xe031;" glyph-name="Folder" d="M845-48.5v276.499c0 14.667-5.333 27.333-16 38s-23.333 16-38 16h-558c-14.666 0-27.333-5.334-38-16s-16-23.333-16-38v-276.5c0-14.667 5.333-27.333 16-38s23.333-15.833 38-15.5h558c14.667 0 27.333 5.334 38 16s16 23.167 16 37.5zM845 407c0 14.667-5.334 27.332-16.001 37.999s-23.333 16-38 16h-243.5c-26 0-52.166 12-78.5 36l-31.5 30c-24.666 24-47.666 36.167-69 36.5h-135.5c-14.666 0-27.333-5.333-38-16s-16-23.333-16-38v-162.5c16.666 8 34.666 11.833 54 11.5h558c19 0.333 37-3.333 54-11v59.5zM791 538c36.333 0 67.167-12.667 92.5-38s38-56.333 38-93v-455.5c0-36.333-12.667-67.167-38-92.5s-56.167-38-92.5-38h-558c-36.334 0-67.167 12.667-92.5 38s-38 56.167-38 92.5v558c0 36.333 12.666 67.167 38 92.5s56.167 38 92.5 38h141c25 0 51.5-12 79.5-36l33.5-30c26.333-24 48.167-36 65.5-36h238.5z" />
<glyph unicode="&#xe032;" glyph-name="Folder_open" d="M896.5 223.5c0 21.667-11.833 32.5-35.5 32.5h-510.5c-16.666 0-32.5-6-47.5-18s-24.166-25.833-27.5-41.5l-51-255.5c-1-4.667-1.5-10.167-1.5-16.5s3-12.333 9-18 14.834-8.5 26.5-8.5h510.5c16.333 0 32 6 47 18s24.333 25.833 28 41.5l51.5 255.5c0.667 4.667 1 8.167 1 10.5zM233 563.5c-14.666 0-27.333-5.334-38-16s-16-23.333-16-38v-403l21.5 106.5c6.667 33.333 24.666 61.667 54 85s61.334 35 96 35h457v74c0 14.667-5.167 27.333-15.5 38s-23.167 16-38.5 16h-206c-26 0-52.166 12-78.5 36l-31.5 30c-24.666 24-47.666 36.167-69 36.5h-135.5zM973 222.5c0-10.334-1.001-19-3.001-26l-51-255.5c-6.333-33.333-24.333-61.667-54-85s-61.667-35-96-35h-536c-36.334 0-67.167 12.667-92.5 38s-38 56.167-38 92.5v558c0 36.333 12.666 67.167 38 92.5s56.167 38 92.5 38h141c25 0 51.5-12 79.5-36l33.5-30c26.333-24 48.167-36 65.5-36h201c36.333 0 67.167-12.667 92.5-38s38-56.333 38-93v-76c26.667-4.667 48.167-17 64.5-37s24.5-43.834 24.5-71.5z" />
<glyph unicode="&#xe033;" glyph-name="archive" d="M595.5 256c13.667 0 24.5-3.333 32.5-10s12-16 12-28-4-21.333-12-28-18.833-10.167-32.5-10.5h-166.5c-14 0-25 3.333-33 10-8 7-12 16.5-12 28.5s4 21.333 12 28 19 10 33 10h166.5zM793.5 384h-563v-460c0-7.333 2.5-13.5 7.5-18.5s11.166-7.5 18.5-7.5h511.5c7.333 0 13.333 2.5 18 7.5s7.167 11.167 7.5 18.5v460zM819.5 563.5h-614.5c-6.667 0.333-12.666-2.167-18-7.5s-8-11.333-8-18v-77h666v77c0 6.667-2.667 12.667-8 18s-11.167 7.833-17.5 7.5zM819.5 640c28.333 0 52.5-10 72.5-30s29.833-44 29.5-72v-141c0-8.667-4.167-13-12.5-13h-38.5v-460c0-28.667-10-53-30-73s-44.167-30-72.5-30h-511.5c-28.334 0-52.5 10-72.5 30s-30.166 44.333-30.5 73v460h-38.5c-8.666 0-12.833 4.333-12.499 13v141c0 28 10 52 30 72s44.166 30 72.5 30h614.5z" />
<glyph unicode="&#xe034;" glyph-name="inbox" d="M845 179.5h-151c-10 0-17-4.833-21-14.5-24-58.667-64-88-120-88h-82c-56 0-96 29.333-120 88-4 9.667-11 14.5-21 14.5h-151v-256c0-7.333 2.333-13.5 7-18.5s10.833-7.333 18.5-7h614.5c6.667 0 12.667 2.333 18 7 5 5 7.667 11.167 8 18.5v256zM361.5 256c25 0 42.834-13 53.501-39s20.833-43.167 30.5-51.5c9.666-8 23.333-11.833 41-11.5h51c17.667 0 31.5 4 41.5 12 9.333 8.333 19.333 25.5 30 51.5s28.5 38.833 53.5 38.5h161.5l-144.5 205h-335.5l-143.5-205h161zM707 538c6.667 0 12-2.667 16-8l193-266.5c3.667-4.667 5.5-10 5.5-16v-324c0-28.333-10-52.5-30-72.5s-44.167-30-72.5-30h-614.5c-28.334 0-52.5 10-72.5 30-19.666 20-29.5 44.167-29.5 72.5v324c0 5.667 1.833 11 5.5 16l193 266.5c3.667 5 9 7.667 16 8h390z" />
<glyph unicode="&#xe035;" glyph-name="sitemap" d="M870.5-102c21 0 39 7.5 54 22.5s22.5 33 22.5 54-7.5 39.167-22.5 54.5-33 22.833-54 22.5c-21 0-39.167-7.5-54.5-22.5-15.333-14.667-22.833-32.667-22.5-54-0.333-21.333 7.167-39.5 22.5-54.5s33.5-22.5 54.5-22.5zM512-102c21 0 39.167 7.5 54.5 22.5 15 15 22.5 33 22.5 54s-7.5 39.167-22.5 54.5-33.167 22.833-54.5 22.5c-21.334 0-39.334-7.5-54-22.5-15.334-14.667-23-32.667-23-54s7.666-39.5 23-54.5 33.334-22.5 54-22.5zM153.5-102c21 0 39.166 7.5 54.5 22.5 15 15 22.5 33 22.5 54s-7.5 39.167-22.5 54.5c-14.666 15.333-32.666 22.833-54 22.5-21.334 0-39.5-7.5-54.5-22.5-15-14.667-22.5-32.667-22.5-54s7.5-39.5 22.5-54.5 33-22.5 54-22.5zM358.5 410c0-42.333 15-78.5 45-108.5 30-30.333 66.166-45.5 108.5-45.5s78.5 15 108.5 45 45 66.333 45 109c0 42.333-15 78.5-45 108.5s-66.167 45-108.5 45-78.5-15-108.5-45-45-66.167-45-108.5zM876 128c38.667 0 73-14.999 103-44.999s45-66.167 45-108.5-15-78.5-45-108.5-64.333-45-103-45-72 10.833-100 32.5c-27.333 21.667-45.5 49.167-54.5 82.5h-60.5c-9-34-27.167-61.667-54.5-83-27.667-21.333-59.167-32-94.5-32s-66.834 10.833-94.5 32.5c-27.334 21.667-45.5 49.167-54.5 82.5h-60.5c-9-34-27.166-61.667-54.5-83s-60.5-32-99.5-32-73.5 15-103.5 45-45 66.167-45 108.5 15 78.5 45 108.5 64.334 45 103 45 72-10.667 100-32c27.334-21.667 45.5-49.333 54.5-83h60.5c6.666 27 20 50.5 40 70.5s43.5 33.334 70.5 40v59c-55 9.666-100.834 35.833-137.5 78.5s-54.833 92.333-54.5 149c-0.333 41.667 9.833 80.167 30.5 115.5 20.666 35 48.666 62.833 84 83.5s74 31 116 31c41.667 0 80.167-10.167 115.5-30.5 35-20.333 62.833-48.167 83.5-83.5s31.167-74 31.5-116c0-56.667-18.333-106.5-55-149.5s-82.333-69-137-78v-59c27-6.667 50.5-20 70.5-40s33.333-43.5 40-70.5h60.5c9 33.667 27.167 61.333 54.5 83 28 21.334 61.333 32 100 32z" />
<glyph unicode="&#xe036;" glyph-name="Book" d="M345.5 51.5h435.5c10.667 0 19.667-3.833 27-11.5 7.333-7.333 11-16.333 11-27s-3.667-19.667-11-27-16.333-11.167-27-11.5h-435.5c-11 0-20.166 3.833-27.5 11.5-7.334 7.333-11 16.334-11 27s3.667 19.666 11 27 16.5 11.167 27.5 11.5zM601.5 563.5c11 0 20.167-3.833 27.5-11.5 7.333-7.333 11-16.333 11-27s-3.833-19.667-11.5-27-16.667-11.167-27-11.5h-179c-11 0-20.166 3.833-27.5 11.5-7.334 7.333-11 16.333-11 27s3.833 19.667 11.5 27 16.666 11.167 27 11.5h179zM793.5 652.5c0 9-4.167 13.5-12.501 13.5h-435.5c-31.666 0-58.833-11.167-81.5-33.5s-33.833-49.667-33.5-82v-384c34.334 25.667 72.667 38.5 115 38.5h435c3.667 0 6.833 1.333 9.5 4 2.333 2.667 3.5 5.667 3.5 9v434.5zM870.5 218c0-24.666-8.834-45.834-26.501-63.5s-38.833-26.5-63.5-26.5h-435c-31.666 0-58.833-11.334-81.5-34s-34-49.666-34-81c0-32 11.334-59.166 34-81.5s49.833-33.5 81.5-33.5h486.5c10.667 0 19.667-3.833 27-11.5s11.167-16.833 11.5-27.5c0-10.667-3.833-19.667-11.5-27s-16.667-11-27-11h-486.5c-53 0-98.166 18.833-135.5 56.5s-56.167 82.833-56.5 135.5v537.5c0 53 18.666 98.333 56 136s82.667 56.333 136 56h435.5c25 0 46.167-8.833 63.5-26.5s26-38.833 26-63.5v-434.5z" />
<glyph unicode="&#xe037;" glyph-name="envelope_o" d="M757 358.5c11 0 19.833-4 26.5-12 6.667-8.333 10-17.833 10-28.5s-4.833-20-14.5-28l-234.5-200c-10-8.667-20.833-13-32.5-13s-22.5 4.333-32.5 13l-234.5 200c-10 8-15 17.333-15 28s3.5 20.167 10.5 28.5c6.667 8.333 15.5 12.5 26.5 12.5s19.666-2.833 26-8.5l210-181.5c2.667-2.333 5.666-3.5 9-3.5s6.333 1.167 9 3.5l210 181.5c6.333 5.333 15 8 26 8zM832 461h-640c-17.334 0-32.334-6.167-45-18.5s-19-27.5-19-45.5v-435c0-17.333 6.167-32.333 18.5-45s27.5-19 45.5-19h640c17.667 0 32.833 6.167 45.5 18.5 12.333 12.333 18.5 27.5 18.5 45.5v435c0 17.667-6.167 32.833-18.5 45.5-12.667 12.333-27.833 18.5-45.5 18.5zM832 538c39 0 72.167-13.667 99.5-41s41.167-60.667 41.5-100v-435c0-39.333-13.667-72.667-41-100s-60.667-41-100-41h-640c-39 0-72.166 13.667-99.5 41s-41.167 60.667-41.501 100v435c0 39 13.666 72.167 41 99.5s60.667 41.167 100.001 41.5h640z" />
<glyph unicode="&#xe038;" glyph-name="image" d="M128-37v-1c0-17.333 6.167-32.333 18.5-45s27.5-19 45.5-19h640c17.667 0 32.833 6.167 45.5 18.5 12.333 12.333 18.5 27.5 18.5 45.5v17c0 12.667-5 23-15 31l-199.5 159.5-223.5-185c-8-6.333-17.334-9.5-28-9.5s-19.666 3.167-27 9.5l-133.5 108.5-126.5-99.5c-10-8-15-18.167-15-30.5zM409.5 410c-14 0-26-5-36-15s-15-22.167-15-36.5c0-14 5-26 15-36s22-15 36-15 26 5 36 15 15.166 22 15.5 36c0 14.333-5 26.5-15 36.5s-22.166 15-36.5 15zM409.5 486.5c35.334 0 65.5-12.5 90.5-37.5s37.5-55.167 37.5-90.5-12.5-65.5-37.5-90.5-55.166-37.5-90.5-37.5-65.5 12.5-90.5 37.5-37.5 55.167-37.5 90.5 12.5 65.5 37.5 90.5 55.166 37.5 90.5 37.5zM832 563.5h-640c-17.334 0.333-32.334-5.833-45-18.5s-19-27.833-19-45.5v-419.5l113.5 89c19.666 14.667 38.166 14.667 55.5 0l133.5-108 223.5 185c8.333 6.667 17.5 10 27.5 10s19.167-3.333 27.5-10l187-149.5v403c0 17.667-6.333 32.833-19 45.5s-27.667 18.833-45 18.5zM832 640c39 0 72.167-13.667 99.5-41s41.167-60.5 41.5-99.5v-537.5c0-39.333-13.667-72.667-41-100s-60.667-41-100-41h-640c-39 0-72.166 13.667-99.5 41s-41.167 60.667-41.501 100v537.5c0 39 13.666 72.167 41 99.5s60.667 41 100.001 41h640z" />
<glyph unicode="&#xe039;" glyph-name="building" d="M550.5-102c8.333 0 12.5 4.167 12.5 12.5v102.5c0 8.667-4.167 13-12.5 13h-77c-8.334 0-12.5-4.333-12.5-13v-102.5c0-8.333 4.167-12.5 12.5-12.5h77zM589 179.5c-14-0.333-26.167 4.5-36.5 14.5-10 10-15 22-15 36s5 26.333 15 37c10.333 10 22.5 15 36.5 15s26-5 36-15 15-22 15-36-5-26.167-15-36.5c-10-10-22-15-36-15zM435 179.5c-14-0.333-26 4.5-36 14.5s-15 22-15 36 5 26.333 15 37c10 10 22 15 36 15s26-5 36-15 15.166-22 15.5-36c0-14-5-26.167-15-36.5-10-10-22.166-15-36.5-15zM537.5 384c0 14 5 26 15 36 10.333 10 22.5 15.167 36.5 15.5 14 0 26-5 36-15 10-10.333 15-22.5 15-36.5s-5-26-15-36-22-15-36-15-26.167 5-36.5 15c-10 10-15 22-15 36zM384 384c0 14 5 26 15 36s22 15.167 36 15.5c14 0 26-5 36-15 10-10.333 15.166-22.5 15.5-36.5 0-14-5-26-15-36s-22.166-15-36.5-15c-14 0-26 5-36 15s-15 22-15 36zM589 589c14 0 26-5 36-15s15-22 15-36-5-26-15-36-22-15.167-36-15.5c-14 0-26.167 5-36.5 15-10 10.333-15 22.5-15 36.5s5 26 15 36c10.333 10 22.5 15 36.5 15zM435 486.5c-14 0-26 5-36 15-10 10.333-15 22.5-15 36.5s5 26 15 36 22 15 36 15 26-5 36-15 15.166-22 15.5-36c0-14-5-26-15-36s-22.166-15.167-36.5-15.5zM729.5-102c8.667 0 12.999 4.167 12.999 12.5v692c0.333 17-5.833 31.833-18.5 44.5s-27.833 19-45.5 19h-332.5c-17.666 0-32.833-6.333-45.5-19s-19-27.5-19-44.5v-692c0-8.333 4.333-12.5 13-12.5h76.5c8.666 0 13 4.167 13 12.5v141c0 14 5 26 15 36s22 15 36 15h154c14 0.333 26-4.5 36-14.5s15-22.167 15-36.5v-141c0-8.333 4.333-12.5 13-12.5h76.5zM678.5 742.5c39 0 72.167-13.667 99.5-41s41-60.333 41-99v-735.5c0-30.667-15.333-46-46-46h-522c-30.666 0-46 15.333-46 46v735.5c0 38.667 13.834 71.667 41.5 99s60.833 41 99.5 41h332.5z" />
<glyph unicode="&#xe040;" glyph-name="plug" d="M536.5 435.5c-3.333 0-6.333-1.334-9-4.001l-57.5-56c-40.334-39.667-60.5-87.833-60.5-144.5s19.834-105 59.5-145 88.333-60 146-60 106 19.833 145 59.5l55 57.5c2.667 2.667 4 5.667 4 9s-1.333 6.167-4 8.5l-269.5 271.5c-2.667 2.333-5.667 3.5-9 3.5zM772 589c10.667 0 19.667-4 27-12s11-17 11-27c0-10.667-4-19.833-12-27.5l-107.5-107.5c-3.333-3.333-5-6.5-5-9.5s1.5-6 4.5-9l90.5-90c3.667-3.333 6.833-5 9.5-5s5.667 1.667 9 5l108 107.5c8 8 17 12 27 12s19-3.833 27-11.5 12-16.833 12-27.5-4-20-12-28l-107.5-107.5c-3.333-3.667-5-6.833-5-9.5s1.5-5.667 4.5-9l18.5-18.5c16.333-16.333 24.5-37.167 24.5-62.5s-8.167-46.334-24.5-63l-57.5-57.5c-55-55-121.333-82.5-199-82.5-45.667 0-89.167 10.5-130.5 31.5-24.334 13-45.667 10.5-64-7.5-32.334-30.333-69.5-54.667-111.5-73-42-18.667-80.666-28-116-28s-73.5 5.833-114.5 17.5c-18.334 6-27.5 19-27.5 39 0 9.667 4 18.167 12 25.5s15 11 21 11 12-0.667 18-2c29.666-9.333 60.666-14 93-14 32.666 0 64.666 7 96 21s54.167 30.167 68.5 48.5 21.5 31.833 21.5 40.5-3.5 19-10.5 31c-25 44.667-37.5 88.5-37.5 131.5 0.333 83.333 27.834 152.833 82.5 208.5l57.5 56.5c17 17 38.334 25.333 64 25s46.5-8.5 62.5-24.5l18-18c3-3 6.167-4.5 9.5-4.5s6.5 1.5 9.5 4.5l107.5 107.5c8 8.333 17.333 12.5 28 12.5z" />
<glyph unicode="&#xe041;" glyph-name="paper_plane" d="M699-21l116.5 479.5-370-410.5 216.5-87.5c11-4.333 19.667-3.833 26 1.5 6 5 9.667 10.667 11 17zM215.5 148c0-5.333 3.167-9 9.5-11l145-59 380.5 414-527.5-331c-5-3.333-7.5-7.667-7.5-13zM695.5-128c-14.667 0-27.666 2.5-39 7.5l-143 57.5-93.5-91.5c-16-16.333-30.666-24.5-44-24.5s-23.667 4.667-31 14-11.167 19.5-11.5 30.5v145l-186.5 75c-29.666 12.333-44.5 30.833-44.5 55.5s12.166 44.5 36.5 59.5l674.5 421c19.333 12.333 37.5 18.5 54.5 18.5 17.333 0 30.667-5.167 40-15.5 15-16.667 18.167-42.333 9.5-77l-150-611.5c-4.667-19.333-14.167-34.833-28.5-46.5s-28.833-17.5-43.5-17.5z" />
<glyph unicode="&#xe042;" glyph-name="credit_card" d="M550.5 26c-11 0-20.167 3.668-27.5 11.001s-11 16.333-11 27 3.833 19.833 11.5 27.5 16.667 11.333 27 11h128c11-0.333 20.167-4.167 27.5-11.5s11-16.334 11-27-3.833-19.666-11.5-27-16.667-11-27-11h-128zM294.5 26.001c-11 0-20.166 3.668-27.5 11.001s-11 16.333-11 27 3.833 19.833 11.5 27.499 16.666 11.333 27 11h128c11-0.333 20.166-4.167 27.5-11.501s11-16.333 11-27-3.833-19.666-11.5-27-16.666-11-27-11h-128zM896-37.997v243.001h-768v-243c0-17.334 6.167-32.334 18.5-45s27.5-19 45.5-19h640c17.667 0 32.833 6.166 45.5 18.5 12.333 12.666 18.5 27.833 18.5 45.499zM896 358.505v38.5c0 17.333-6.167 32.333-18.5 45s-27.5 19-45.5 19h-640c-17.334 0-32.334-6.167-45-18.5s-19-27.5-19-45.5v-38.5h768zM832 538.005c39 0 72.167-13.667 99.5-41s41.167-60.667 41.5-100v-435c0-39.333-13.667-72.667-41-100s-60.667-41-100-41h-640c-39 0-72.166 13.666-99.5 41s-41.167 60.667-41.501 100v435c0 39 13.666 72.167 41 99.5s60.667 41.167 100.001 41.5h640z" />
<glyph unicode="&#xe043;" glyph-name="life_ring" d="M846 230.5l-57.002-0.001c-16.333 0-27.333-8.333-33-25-12.667-39.667-33.833-74.5-63.5-104.5s-64.333-51.167-104-63.5c-16.667-5.667-25.167-16.5-25.5-32.5v-57c0-13 4.667-23.5 14-31.5s20.167-10.167 32.5-6.5c67 17.333 125 50.667 174 100s82.333 107.5 100 174.5c3.333 12.334 1.167 23.167-6.5 32.5s-18 13.833-31 13.5zM234.998 230.499l-57.001 0.001c-12.667 0.333-23-4.167-31-13.5s-10.167-20.167-6.5-32.5c17.333-67 50.667-125 100.001-174s107.334-82.5 174-100.5c12.334-3.333 23.167-1 32.5 7s14 18.333 14 31v57c0 16-8.5 26.834-25.5 32.5-39.666 12.666-74.5 33.833-104.5 63.5s-51 64.5-63 104.5c-6 16.667-17 25-33 25zM511.995 461c-49.334 0-91.5-17.5-126.5-52.5s-52.5-77.167-52.5-126.5 17.5-91.667 52.5-127 77.166-52.834 126.5-52.5c49.333 0 91.5 17.5 126.5 52.5 35 35.334 52.5 77.667 52.5 127s-17.5 91.5-52.5 126.5-77.167 52.5-126.5 52.5zM562.995 615.5v-56.5c0-16 8.5-27 25.5-33 39.667-12.667 74.5-33.833 104.5-63.5s51-64.5 63-104.5c5.667-16.667 16.667-25 33-25h57c12.667 0 23 4.667 31 14s10.167 20 6.5 32c-17 66.667-50.167 124.667-99.5 174s-107.5 82.833-174.5 100.5c-12.333 3.667-23.167 1.5-32.5-6.5s-14-18.5-14-31.5zM177.998 333h57.001c16.333 0 27.333 8.333 33 25 12.666 40 33.833 75 63.5 105s64.333 51 104 63c16.666 5.667 25.166 16.667 25.5 33v56.5c0 13-4.667 23.5-14 31.5s-20.167 10.167-32.5 6.5c-67-17.333-125-50.667-174-100s-82.334-107.5-100-174.5c-3.667-12-1.5-22.667 6.5-32s18.334-14 31-14zM512 742.5c62.667 0 122.332-12.167 178.999-36.5 114.667-49 196.333-130.833 245-245.5 24.667-56.667 37-116.167 37-178.5 0-62.667-12.333-122.333-37-179-49.333-114.334-131-196.167-245-245.5-56.667-24.333-116.333-36.5-179-36.5s-122.333 12.167-179 36.5c-114.666 49-196.333 130.833-245 245.5-24.666 56.667-37 116.333-37 179s12.334 122.167 37 178.5c49 114.333 130.667 196.167 245 245.5 57 24.333 116.666 36.5 179 36.5z" />
<glyph unicode="&#xe044;" glyph-name="thumb_tack" d="M511.5 655.5c-2 0-5-1.167-9-3.501l-247.5-142.5c-4.333-2.667-6.5-6.167-6.5-10.5s3-8 9-11l82-33.5c6-3.333 10.334-7.167 13-11.5l81.5-140.5c1.667-3.667 2.5-6.833 2.5-9.5s-0.667-5.833-2-9.5c-19-43.333-28.666-84.333-29-123s4-58 13-58c2.333 0 4.833 0.833 7.5 2.5l340 197c9.333 5.333 9.833 11.5 1.5 18.5-25 20-49.167 34.667-72.5 44s-52.167 15.833-86.5 19.5c-6.667 1.333-11.667 4.667-15 10l-82.5 143.5c-3 3.667-3.667 8.5-2 14.5l12 88c1.333 10.333-1.833 15.5-9.5 15.5zM834-140.001c0-14.667-6.666-25.834-20-33.5-6.333-3.667-14.667-5.5-25-5.5s-19.167 6.667-26.5 20l-160.5 277.5-168.5-97.5c-12.334-7.666-24.667-11.333-37-10.999-44.334 0-67.334 43.333-69 130 0 55 8.5 104.5 25.5 148.5l-58.5 101-88 36.5c-15.666 6.667-28.5 16.667-38.5 30s-14.834 27.5-14.5 42.5c0 27.667 14.5 49.833 43.5 66.5l281.5 163c29.334 17.333 56.667 20.5 82 9.5s40-31.167 44-60.5c1-7.333 1-13.833 0-19.5l-17.5-98.5 58-101c46-6.667 89.667-21.333 131-44s69.667-47.5 85-74.5c6-10.333 9.167-21 9.5-32 0-23-11.333-41-34-54l-168-96.5 160.5-277.5c3.333-6.333 5-12.833 5-19.5z" />
<glyph unicode="&#xe045;" glyph-name="trash" d="M601.5 282c11 0 20.166-3.833 27.5-11.5s11-16.666 11-27v-230.5c0-10.666-3.833-19.666-11.5-27s-16.833-11.167-27.5-11.5c-10.667 0-19.667 3.833-27 11.5s-11 16.667-11 27v230.5c0 11 3.667 20.167 11 27.5s16.5 11 27.5 11zM422.5 282c11 0 20.166-3.833 27.5-11.5s11-16.667 11-27v-230.5c0-10.667-3.833-19.667-11.5-27s-16.833-11.167-27.5-11.5c-10.666 0-19.666 3.833-27 11.5s-11 16.666-11 27v230.5c0 11 3.667 20.166 11 27.5s16.5 11 27.5 11zM729.5-101.999c8.667 0 13 4.167 13 12.5v448h-461v-448c0-8.333 4.333-12.5 13-12.5h435zM793.5 499.5c0 8.333-4.167 12.5-12.5 12.5h-538c-8.334 0-12.5-4.167-12.5-12.5v-64h563v64zM599 666h-174c-10.334 0-15.5-5.167-15.5-15.5v-46c0-10.333 5.166-15.5 15.5-15.5h174c10.333 0 15.5 5.167 15.5 15.5v46c0 10.333-5.167 15.5-15.5 15.5zM601.5 742.5c25 0 46.167-8.667 63.5-26s26-38.5 26-63.5v-48.5c0-10.333 5.167-15.5 15.5-15.5h74.5c25 0 46.167-8.667 63.5-26s26-38.5 26-63.5v-125.5c0-10.333-5.167-15.5-15.5-15.5h-36v-448c0-25-8.667-46.167-26-63.5s-38.5-26-63.5-26h-435c-25 0-46.166 8.667-63.5 26s-26 38.5-26 63.5v448h-36c-10.334 0-15.5 5.167-15.5 15.5v125.5c0 25 8.666 46.167 26 63.5s38.5 26 63.5 26h74.5c10.334 0 15.5 5.167 15.5 15.5v48.5c0 25 8.666 46.167 26 63.5s38.5 26 63.5 26h179z" />
<glyph unicode="&#xe046;" glyph-name="print" d="M691 128h-358v-230h358v230zM768 38.5c0-8.333 4.333-12.5 13-12.5h90c6.667 0 12.5 2.333 17.5 7s7.5 10.833 7.5 18.5v307c0 7.667-2.5 13.833-7.5 18.5s-10.833 7-17.5 7h-717.5c-7.667 0-13.833-2.333-18.5-7s-7-10.833-7-18.5v-307c0-7.333 2.5-13.5 7.5-18.5s11-7.333 18-7h89.5c8.666 0 13 4.167 13 12.5v153.5c0 8.667 4.333 13 13 13h486c8.667 0 13-4.333 13-13v-153.5zM691 563.5h-358v-102.5h358v102.5zM768 640v-179h103c28.333 0 52.333-10 72-30s29.667-44.167 30-72.5v-307c0-28.333-10-52.5-30-72.5s-44-30-72-30h-103v-128h-512v128h-102.5c-28.334 0-52.5 10-72.5 30s-30 44.167-30 72.5v307c0 28.333 10 52.5 30 72.5s44.166 30 72.5 30h102.5v179h512z" />
<glyph unicode="&#xe047;" glyph-name="quote_o" d="M778 461c-11.667 0-33.333-10.666-65-32-43.667-29.333-83.833-72-120.5-128-36.667-56.334-55-118.667-55-187s18.667-121.5 56-159.5c37-37.667 81.167-56.5 132.5-56.5s92.5 13 123.5 39 46.5 59.833 46.5 101.5c0 78-54.333 121.333-163 130-13.333 1.333-24.333 6.167-33 14.5-8.667 8.666-13 16.666-13 24s0.167 12 0.5 14c12 75.666 52.333 127.833 121 156.5 5.667 2.333 8.5 5.5 8.5 9.5s-0.5 7-1.5 9l-29 58c-2.333 4.667-5.167 7-8.5 7zM359 461c-12.334 0-34-10.666-65-32-42-29-80.166-71.5-114.5-127.5s-51.5-118.5-51.5-187.5c0-69.334 17.166-122.667 51.5-160s77.167-56 128.5-56 93.834 13 127.5 39c34 26 51 58.833 51 98.5 0 39.333-13.166 69-39.5 89-29.666 24.333-74.166 39-133.5 44-13 1.333-24.5 6.667-34.5 16s-13.666 21.5-11 36.5c12 75.666 52.166 127.833 120.5 156.5 9.334 3.333 11.834 9.5 7.5 18.5l-29.5 58c-1.667 4.667-4.167 7-7.5 7zM777 538c35 0 61.163-16.832 78.497-50.499l31.5-62c6-13 9-26.833 9-41.5s-4.667-29-14-43-23-25.333-41-34c-39.333-17.667-62-38.833-68-63.5 78-12 135.167-46.834 171.5-104.5 19-29.334 28.5-63.667 28.5-103s-10.667-75.667-32-109-50.333-59.334-87-78-76-28-118-28-82 8.166-120 24.5-68 38.5-90 66.5c-3.333 4-7.333 6-12 6s-8.5-2.167-11.5-6.5c-44.334-60.334-109.834-90.5-196.5-90.5-44.666 0-86.833 11.833-126.5 35.5s-70.833 57.166-93.499 100.5-34.333 94.5-34.999 153.5c0 59 12.666 117.5 38 175.5s57.833 107.5 97.5 148.5 82.833 72.5 129.499 94.5c12.334 5.667 26.167 8.667 41.5 9 35 0 61-16.833 78-50.5l31.5-62c6-13 9-26.833 9-41.5s-4.667-29-14-43-23-25.334-41-34c-38.666-17.334-61.333-38.5-68-63.5 36.666-6 69.333-18.5 98-37.5 3-2 6.166-3 9.5-3 7.334 0 11.667 4 13 12 16.334 68.666 49.167 131.333 98.5 188s103.833 98.667 163.5 126c12.333 6 26.167 9 41.5 9z" />
<glyph unicode="&#xe048;" glyph-name="th_large" d="M832-102c8 0 12.333 4.167 13 12.5v205c0 8.333-4.333 12.5-13 12.5h-205c-8.333 0-12.5-4.167-12.5-12.5v-205c0-8.333 4.167-12.5 12.5-12.5h205zM409.5 115.5c0 8.333-4.167 12.5-12.5 12.5h-205c-8 0-12.334-4.167-13-12.5v-205c0-8.333 4.333-12.5 13-12.5h205c8.334 0 12.5 4.167 12.5 12.5v205zM832 205c25 0 46.167-8.667 63.5-26s26-38.5 26-63.5v-205c0-25-8.667-46.167-26-63.5s-38.5-26-63.5-26h-205c-25 0-46.167 8.667-63.5 26s-26 38.5-26 63.5v205c0 25 8.667 46.167 26 63.5s38.5 26 63.5 26h205zM397 205c25 0 46.166-8.667 63.5-26s26-38.5 26-63.5v-205c0-25-8.666-46.167-26-63.5s-38.5-26-63.5-26h-205c-25 0-46.166 8.667-63.5 26s-26 38.5-26 63.5v205c0 25 8.666 46.167 26 63.5s38.5 26 63.5 26h205zM832 333c8 0 12.333 4.334 13 13.001v204.5c0 3.667-1.333 6.833-4 9.5s-5.667 3.833-9 3.5h-205c-8.333 0-12.5-4.333-12.5-13v-204.5c0-8.667 4.167-13 12.5-13h205zM409.5 550.5c0 8.667-4.167 13-12.5 13h-205c-8 0-12.334-4.333-13-13v-204.5c0-3.333 1.333-6.333 4-9s5.667-4 9-4h205c8.334 0 12.5 4.333 12.5 13v204.5zM832 640c25 0 46.167-8.667 63.5-26s26-38.5 26-63.5v-204.5c0-25-8.667-46.167-26-63.5s-38.5-26.167-63.5-26.5h-205c-25 0-46.167 8.666-63.5 26s-26 38.667-26 64v204.5c0 25 8.667 46.167 26 63.5s38.5 26 63.5 26h205zM397 640c25 0 46.166-8.667 63.5-26s26-38.5 26-63.5v-204.5c0-25-8.666-46.167-26-63.5s-38.5-26.167-63.5-26.5h-205c-25 0-46.166 8.666-63.5 26s-26 38.667-26 64v204.5c0 25 8.666 46.167 26 63.5s38.5 26 63.5 26h205z" />
<glyph unicode="&#xe049;" glyph-name="eye" d="M349 352.5c-4.667 0-9.833-1.167-15.5-3.5-82.666-32-146.667-82.5-192-151.5-5.333-7.667-4.333-15.667 3-24 59.666-68.333 144.167-113.333 253.5-135 41.334-8.333 85.167-12.5 131.5-12.5 150.667 0 266.833 42.333 348.5 127 12 12 18 24.333 18 37s-4.5 23.833-13.5 33.5c-18.333 27.666-47 54.333-86 80s-66 39.667-81 42h-3.5c-6 0-10.833-1.833-14.5-5.5s-5.5-8-5.5-13c0-5.333 2-13.333 6-24s5.833-26.333 5.5-47c0-49.334-17.5-91.5-52.5-126.5s-77.167-52.5-126.5-52.5-91.667 17.5-127 52.5c-35 35-52.5 77.166-52.5 126.5 0 23.334 2.833 42.167 8.5 56.5s8.5 23.333 8.5 27c0 8.667-4.333 13-13 13zM512 307.5c0 14-5 26-15 36s-22 15-36 15-26-5-36-15-15.166-22-15.5-36c0-14 5-26 15-36 10-10.333 22.166-15.5 36.5-15.5 14 0 26 5 36 15s15 22.167 15 36.5zM529.5 461c93.333 0 181-22.168 263-66.501 62-34 111.667-74.667 149-122 21-23.667 31.5-52.667 31.5-87s-14-64-42-89c-65.667-65.667-155-110.333-268-134-42.667-9-86-13.5-130-13.5s-84.834 2.833-122.5 8.5c-124.666 18.666-222.167 63.166-292.5 133.5-23.334 22.334-40.334 41.667-51 58-10.666 16-16 27.333-16 34s2.167 13.5 6.5 20.5c101.334 171.667 258.667 257.5 472 257.5z" />
<glyph unicode="&#xe050;" glyph-name="eye_closed" d="M973 192c0-10.667-3.832-19.667-11.499-27-26.333-26.334-54.167-50-83.5-71 2-2 3.5-3.667 4.5-5l57.5-79c4.667-6.667 7-15.333 7-26s-4.167-19.167-12.5-25.5-17.833-9.5-28.5-9.5-20.167 5.333-28.5 16l-57 78.5c-1.667 2-3.5 5.5-5.5 10.5-29-15.667-58.167-29.167-87.5-40.5l38-104c1.667-5 2.5-10.5 2.5-16.5s-3.167-13.333-9.5-22c-6.333-9-14.833-13.333-25.5-13-20 0-33.333 8.333-40 25l-38 106-1 2.5c-38.667-9.667-77.5-15.167-116.5-16.5v-115.5c-0.333-11-4.167-20.167-11.5-27.5s-16.334-11-27-11-19.666 3.833-27 11.5-11 16.667-11 27v117c-34.334 3.333-66.834 8.833-97.5 16.5 0-0.667-0.333-2-1-4l-39-106c-5.666-16.667-17.666-25-36-25-4.667 0-9 0.667-13 2-16.666 6.667-25 18.833-25 36.5 0 4.667 0.667 9 2 13l39 105.5c0 0.333 0.167 0.667 0.5 1-25.334 9.333-52.167 21.833-80.5 37.5l-64.5-88.5c-8-10.667-17.334-16-28-16s-20.333 3-28.999 9-12.666 14.667-12 26c0 11.333 2.333 20 7 26l61.5 84.5c-29.334 21-57 44.5-83 70.5-7.666 7.333-11.5 16.333-11.5 27s3.833 19.833 11.5 27.5 16.833 11.5 27.499 11.5 19.5-3.833 26.5-11.5c54.334-54 115.834-95.5 184.5-124.5s139-43.5 211-43.5 142.333 14.5 211 43.5 130.167 70.5 184.5 124.5c7.667 7.666 16.667 11.5 27 11.5s19.333-3.833 27-11.5 11.5-16.833 11.5-27.5z" />
<glyph unicode="&#xe051;" glyph-name="volume_off" d="M274.5 282h-134c-3 0-5.833-1.333-8.5-4s-4-5.667-4-9v-179c0-3.333 1.333-6.333 4-9s5.5-4 8.5-4h134.5c24 0 43-8.333 57-25l103-124.5v506l-103.5-127c-13.334-16.333-32.334-24.5-57-24.5zM451.5 538c17 0 31.334-5.333 43-16s17.5-25 17.5-43v-599.5c0-17.667-5.666-31.833-17-42.5s-25.5-16-42.5-16-31 6.5-42 19.5l-112 134.5c-14 16.666-33 25-57 25h-101c-24.334 0-45.334 8.834-63 26.5s-26.5 38.833-26.5 63.5v179c0 25 8.666 46.167 26 63.5s38.5 26 63.5 26h101c24.666 0 43.666 8.167 57 24.5l112 136c10.334 12.667 24 19 41 19z" />
<glyph unicode="&#xe052;" glyph-name="volume_down" d="M614.5 282c28 0 52-9.999 72-29.999 20.333-20 30.5-44.333 30.5-73 0-28-10-52-30-72s-44.167-30-72.5-30c-11 0-20.167 3.833-27.5 11.5s-11 16.833-11 27.5 3.833 19.666 11.5 27 15.833 11 24.5 11 15.667 2.333 21 7c4.667 4.667 7 10.666 7 18 0 6.666-2.5 12.666-7.5 18s-11.833 8-20.5 8-17 3.833-25 11.5c-7.333 7.666-11 16.833-11 27.5s3.667 19.667 11 27 16.5 11 27.5 11zM274.5 282.001h-134c-3 0-5.833-1.333-8.5-4s-4-5.667-4-9v-179c0-3.333 1.333-6.333 4-9s5.5-4 8.5-4h134.5c24 0 43-8.333 57-25l103-124.5v506l-103.5-127c-13.334-16.333-32.334-24.5-57-24.5zM451.5 538c17 0 31.334-5.333 43-16s17.5-25 17.5-43v-599.5c0-17.667-5.666-31.833-17-42.5s-25.5-16-42.5-16-31 6.5-42 19.5l-112 134.5c-14 16.666-33 25-57 25h-101c-24.334 0-45.334 8.834-63 26.5s-26.5 38.833-26.5 63.5v179c0 25 8.666 46.167 26 63.5s38.5 26 63.5 26h101c24.666 0 43.666 8.167 57 24.5l112 136c10.334 12.667 24 19 41 19z" />
<glyph unicode="&#xe053;" glyph-name="volume_medium" d="M665.5 179.5c0-14.333-5-26.498-15-36.498s-21.167-15-33.5-15c-12.667 0-22.667 3.833-30 11.5s-11 14.833-11 21.499 0.667 12.833 2 18.5c-1.333 5.666-2 11.833-2 18.499s3.833 13.833 11.5 21.5 17.5 11.5 29.5 11.5 23.167-5.167 33.5-15.5c10-10 15-22 15-36zM614.5 384c56.667 0 105-20.001 145-60.001 39.667-40 59.5-88.167 59.5-144.5 0-56.667-20-105-60-145s-88.167-60-144.5-60c-11 0-20.167 3.833-27.5 11.5-7.333 7.333-11 16.333-11 27s3.833 19.667 11.5 27 16.667 11.167 27 11.5c35.333 0 65.5 12.5 90.5 37.5s37.5 55.166 37.5 90.5-12.5 65.5-37.5 90.5-55.167 37.5-90.5 37.5c-11 0.333-20.167 4.167-27.5 11.5s-11 16.333-11 27 3.667 19.667 11 27 16.5 11 27.5 11zM274.5 282.001h-134c-3 0-5.833-1.333-8.5-4s-4-5.667-4-9v-179c0-3.333 1.333-6.333 4-9s5.5-4 8.5-4h134.5c24 0 43-8.333 57-25l103-124.5v506l-103.5-127c-13.334-16.333-32.334-24.5-57-24.5zM451.5 538c17 0 31.334-5.333 43-16s17.5-25 17.5-43v-599.5c0-17.667-5.666-31.833-17-42.5s-25.5-16-42.5-16-31 6.5-42 19.5l-112 134.5c-14 16.666-33 25-57 25h-101c-24.334 0-45.334 8.834-63 26.5s-26.5 38.833-26.5 63.5v179c0 25 8.666 46.167 26 63.5s38.5 26 63.5 26h101c24.666 0 43.666 8.167 57 24.5l112 136c10.334 12.667 24 19 41 19z" />
<glyph unicode="&#xe054;" glyph-name="volume_up" d="M665.5 179.5c0-14.333-5-26.498-15-36.498s-21.167-15-33.5-15c-12.667 0-22.667 3.833-30 11.5s-11 14.833-11 21.499 0.667 12.833 2 18.5c-1.333 5.666-2 11.833-2 18.499s3.833 13.833 11.5 21.5 17.5 11.5 29.5 11.5 23.167-5.167 33.5-15.5c10-10 15-22 15-36zM614.5-25.498c-11 0-20.167 3.833-27.5 11.499-7.333 7.333-11 16.333-11 27s3.833 19.667 11.5 27 16.667 11.167 27 11.5c35.333 0 65.5 12.5 90.5 37.5s37.5 55.166 37.5 90.5-12.5 65.5-37.5 90.5-55.167 37.5-90.5 37.5c-11 0.333-20.167 4.167-27.5 11.5s-11 16.333-11 27 3.833 19.667 11.5 27 16.667 11 27 11c56.667 0 105-20 145-60 39.667-40 59.5-88.167 59.5-144.5 0-56.667-20-105-60-145s-88.167-60-144.5-60zM274.5 282.001h-134c-3 0-5.833-1.333-8.5-4s-4-5.667-4-9v-179c0-3.333 1.333-6.333 4-9s5.5-4 8.5-4h134.5c24 0 43-8.333 57-25l103-124.5v506l-103.5-127c-13.334-16.333-32.334-24.5-57-24.5zM614.5 538c48.667 0 95.166-9.499 139.5-28.499 88.667-38 152.167-101.5 190.5-190.5 19-44.333 28.5-90.833 28.5-139.5s-9.5-95.167-28.5-139.5c-38.333-89.333-101.833-152.833-190.5-190.5-44.333-19-90.833-28.5-139.5-28.5-11 0-20.167 3.833-27.5 11.5s-11 16.833-11 27.5 3.833 19.666 11.5 27 16.667 11 27 11c38.333 0 74.833 7.333 109.5 22 70.333 30 120.167 80 149.5 150 15 34.666 22.5 71.166 22.5 109.5s-7.5 74.834-22.5 109.5c-30.667 70.667-80.5 120.5-149.5 149.5-34.667 15-71.167 22.5-109.5 22.5-11 0-20.167 3.833-27.5 11.5s-11 16.833-11 27.5 3.667 19.667 11 27 16.5 11 27.5 11zM451.5 538c17 0 31.334-5.333 43-16s17.5-25 17.5-43v-599.5c0-17.667-5.666-31.833-17-42.5s-25.5-16-42.5-16-31 6.5-42 19.5l-112 134.5c-14 16.666-33 25-57 25h-101c-24.334 0-45.334 8.834-63 26.5s-26.5 38.833-26.5 63.5v179c0 25 8.666 46.167 26 63.5s38.5 26 63.5 26h101c24.666 0 43.666 8.167 57 24.5l112 136c10.334 12.667 24 19 41 19z" />
<glyph unicode="&#xe055;" glyph-name="volume_off_alt" d="M935 358.5c10.667 0 19.667-3.667 27-11 7.333-7.667 11-16.833 11-27.5s-3.833-19.667-11.5-27l-113.5-113.5 113.5-114c7.667-7.667 11.5-16.833 11.5-27.5s-3.833-19.666-11.5-27-16.833-11-27.5-11-19.5 3.833-26.5 11.5l-114 113.5-113.5-113.5c-8-7.667-17-11.5-27-11.5s-19.167 3.833-27.5 11.5c-7.667 8.334-11.5 17.5-11.5 27.5s3.833 18.834 11.5 26.5l114 114-114 113.5c-7.667 7.334-11.5 16.334-11.5 27s3.833 19.833 11.5 27.5 16.833 11.5 27.5 11.5 19.667-3.833 27-11.5l113.5-114 114 114c7.667 7.333 16.833 11 27.5 11zM274.5 282h-134c-3 0-5.833-1.333-8.5-4s-4-5.666-4-9v-179c0-3.333 1.333-6.334 4-9s5.5-4 8.5-4h134.5c24 0 43-8.334 57-25l103-124.5v506l-103.5-127c-13.334-16.334-32.334-24.5-57-24.5zM451.5 538c17 0 31.334-5.333 43-16s17.5-25 17.5-43v-599.5c0-17.667-5.666-31.833-17-42.5s-25.5-16-42.5-16-31 6.5-42 19.5l-112 134.5c-14 16.666-33 25-57 25h-101c-24.334 0-45.334 8.834-63 26.5s-26.5 38.833-26.5 63.5v179c0 25 8.666 46.167 26 63.5s38.5 26 63.5 26h101c24.666 0 43.666 8.167 57 24.5l112 136c10.334 12.667 24 19 41 19z" />
<glyph unicode="&#xe056;" glyph-name="heart_o" d="M845 366c0 40-14.333 74.332-43 102.999s-62.667 43-102 43-73-12.667-101-38-44-56.833-48-94.5c-1-10.333-5.167-18.5-12.5-24.5-7-6-15.5-9.167-25.5-9.5-10 0-19 3.167-27 9.5s-12.5 14.833-13.5 25.5c-3.667 37.333-19.5 68.667-47.5 94-28 25-61.666 37.5-101 37.5s-73.334-14.333-102-43-43-63.333-43-104 13.334-74.166 40-100.5l294-299 289 296c28.667 29.334 43 64.167 43 104.5zM698 589c61.667 0 114.335-21.834 158.001-65.5s65.5-95.833 65.5-156.5-20.5-112.667-61.5-156l-319-327.5c-8-7.667-17.333-11.5-28-11.5s-19.666 3.833-27 11.5l-323 328c-40.334 41.667-60.5 93.167-60.5 154.5s21.834 113.833 65.5 157.5 96.333 65.5 158 65.5c38 0 73.334-8.833 106-26.5s59.333-41.667 80-72c20.667 29.667 47.333 53.5 80 71.5s68 27 106 27z" />
<glyph unicode="&#xe057;" glyph-name="wrench" d="M676 666c-68 0-125.166-23.834-171.5-71.5s-69.5-105.833-69.5-174.5c0-20.333 1.833-37.833 5.5-52.5s11.666-37.333 24-68l-296-225.5c-27-20.334-40.5-45.667-40.5-76 0-30.667 9-55 27-73s41.334-27 70-27 53.666 11.667 75 35l247 279.5c30.667-14.333 54.333-23.5 71-27.5s36-6 58-6c73 0 131.333 25.667 175 77h-160l-102 154 102 153.5h185.5c-23 32.333-52.167 57.5-87.5 75.5s-73 27-113 27zM676 742.5c61 0 117.168-15.667 168.501-47s90.667-73.833 118-127.5c15-30.333 14.333-53.333-2-69-8.333-8.333-20-12.5-35-12.5h-196l-50-76.5 50-77h187.5c13.333 0 23.833-3.5 31.5-10.5s11.5-16.167 11.5-27.5-3.667-23.167-11-35.5c-28-50.666-65.667-89.5-113-116.5s-100.667-40.666-160-41c-38.333 0-74.5 6.166-108.5 18.5l-210.5-238.5c-35.334-40.667-78.667-61-130-61s-93.5 16.667-126.5 50c-32.666 35.333-49.166 76.167-49.5 122.5 0 58 23.5 105 70.5 141l249.5 195c-8.666 28.333-13 61.5-13 99.5s8.334 76.833 25 116.5c33.334 80.667 89.334 138 168 172 39.667 16.667 81.333 25 125 25z" />
<glyph unicode="&#xe058;" glyph-name="file" d="M473 589c10.666 0 20-3.667 28-11 7.334-7.333 11-16.5 11-27.5v-166.5h167c10.667 0 19.667-3.667 27-11s11.167-16.333 11.5-27c0-10.667-3.667-19.833-11-27.5s-16.5-11.333-27.5-11h-205.5c-11.334 0-20.334 3.667-27 11-7.666 6.666-11.5 15.833-11.5 27.5v204.5c0 11 3.667 20.167 11 27.5s16.334 11 27 11zM496.5 666h-184c-22.666 0-42-8-58-24s-24-35.333-24-58v-604.5c0-22.333 8-41.5 24-57.5s35.334-24 58-24h399c22.667 0 42 8 58 24s24 35.167 24 57.5v386c0 19.667-7.167 37.167-21.5 52.5l-223 226c-5.667 6-13.667 11.167-24 15.5s-19.834 6.5-28.5 6.5zM496.5 742.5c18.667-0.333 37.833-4.5 57.5-12.5s36.167-18.667 49.5-32l223.5-225.5c13-13.333 23.5-29.833 31.5-49.5s12-38.833 12-57.5v-386c0-43.667-15.5-81-46.5-112s-68.5-46.5-112.5-46.5h-399c-43.666 0-81.166 15.5-112.5 46.5-31 31-46.5 68.333-46.5 112v604.5c0 43.667 15.5 81 46.5 112s68.5 46.5 112.5 46.5h184z" />
<glyph unicode="&#xe059;" glyph-name="all_files" d="M563-102c24 0 45.167 7.334 63.5 22s30.333 32.833 36 54.5h-222c-43.666 0-81.166 15.5-112.5 46.5-31 31-46.5 68.5-46.5 112.5v430c-28.334 0-52.5-10-72.5-30s-30-44.167-30-72.5v-461c0-28 10-52 30-72s44.166-30 72.5-30h281.5zM729.5 435.5c11 0 20.168-3.834 27.501-11.5s11-16.833 11-27.5-3.667-19.667-11-27-16.5-11-27.5-11h-153.5c-10.667 0-19.667 3.833-27 11.5s-11.167 16.667-11.5 27v154c0 10.667 3.833 19.667 11.5 27s16.833 11 27.5 11 19.667-3.667 27-11 11-16.333 11-27v-115.5h115zM845 133.5v283c0 19.667-7.167 37.167-21.5 52.5l-172 175c-6.333 6-14.5 11.167-24.5 15.5s-19.333 6.5-28 6.5h-158.5c-22.666 0-42-8-58-24s-24-35.333-24-58v-450.5c0-22.667 8-42 24-58s35.334-24 58-24h322.5c22.667 0 42 8 58 24s24 35.333 24 58zM921.5 416.5l0.001-283c0-43.667-15.5-81.167-46.5-112.5s-68.333-46.833-112-46.5h-22.5c-5.667-43.667-25.5-80.167-59.5-109.5s-73.333-44-118-44h-281.5c-49.334 0-91.5 17.5-126.5 52.5s-52.5 77.167-52.5 126.5v461c0 49.333 17.5 91.5 52.5 126.5s77.166 52.5 126.5 52.5h10.5c11.666 30.333 30.833 55 57.5 74 27 19 57.334 28.5 91 28.5h158.5c18.667-0.333 37.833-4.5 57.5-12.5s36.167-18.667 49.5-32l172-174.5c13-13 23.5-29.333 31.5-49s12-39 12-58z" />
<glyph unicode="&#xe060;" glyph-name="your_files" d="M604 77c7 0 10.5 3.333 10.5 10v82c0 7-3.5 10.5-10.5 10.5h-184c-2.667 0-5-1-7-3s-3.167-4.5-3.5-7.5v-82c0-6.667 3.5-10 10.5-10h184zM461 315v-59h102v59c0 13.333-4.667 24-14 32-9.667 8-22 12-37 12s-27.334-4-37-12c-9.334-8-14-18.667-14-32zM644 256c13.667 0 25-4.334 34-13.001s13.333-20 13-34v-161.5c0-13.667-4.333-25-13-34s-20-13.5-34-13.5h-264c-13.666 0-25 4.5-34 13.5s-13.334 20.333-13 34v161.5c0 13.667 4.333 25 13 34 9 9 20.334 13.333 34 13h4v59c0 33.333 11.834 61.667 35.5 85s54.5 35.167 92.5 35.5c38 0 68.833-11.667 92.5-35s35.5-51.833 35.5-85.5v-59h4zM793.5-20.501v386c0 19.667-7.167 37.167-21.5 52.5l-223 226c-5.667 6-13.667 11.167-24 15.5s-19.834 6.5-28.5 6.5h-184c-22.666 0-42-8-58-24s-24-35.333-24-58v-604.5c0-22.333 8-41.5 24-57.5s35.334-24 58-24h399c22.667 0 42 8 58 24s24 35.167 24 57.5zM870.5 365.5v-386c0-43.667-15.5-81-46.5-112s-68.5-46.5-112.5-46.5h-399c-43.666 0-81.166 15.5-112.5 46.5-31 31-46.5 68.333-46.5 112v604.5c0 43.667 15.5 81 46.5 112s68.5 46.5 112.5 46.5h184c18.667-0.333 37.833-4.5 57.5-12.5s36.167-18.667 49.5-32l223.5-225.5c13-13.333 23.5-29.833 31.5-49.5s12-38.833 12-57.5z" />
<glyph unicode="&#xe061;" glyph-name="align_left" d="M832 0c10.667 0 19.667-3.668 27-11.001s11.167-16.333 11.5-27c0-10.667-3.833-19.833-11.5-27.5s-16.667-11.333-27-11h-640c-10.666 0.333-19.666 4.167-27 11.5s-11.167 16.334-11.5 27c0 10.666 3.833 19.666 11.5 27s16.666 11 27 11h640zM627 153.998c10.667 0 19.834-3.833 27.5-11.5s11.5-16.833 11.5-27.499-4-19.667-12-27c-7.333-7.334-16.333-11-27-11h-435c-10.666 0-19.666 3.833-27 11.5s-11.167 16.833-11.5 27.499c0 10.667 3.833 19.667 11.5 27s16.666 11 27 11h435zM832 307.498c10.667 0 19.667-3.833 27-11.5 7.333-7.333 11.167-16.333 11.5-27 0-10.666-3.833-19.666-11.5-27s-16.667-11.167-27-11.5h-640c-10.666 0-19.666 3.833-27 11.5-7.333 7.333-11.167 16.333-11.5 27 0 10.666 3.833 19.666 11.5 27s16.666 11.167 27 11.5h640zM627 461c10.667 0 19.834-3.833 27.5-11.5s11.5-16.833 11.5-27.5-4-19.667-12-27c-7.333-7.333-16.333-11-27-11h-435c-10.666 0-19.666 3.833-27 11.5s-11.167 16.833-11.5 27.5c0 10.667 3.833 19.667 11.5 27s16.666 11 27 11h435z" />
<glyph unicode="&#xe062;" glyph-name="align_center" d="M832 0c10.667 0 19.667-3.668 27-11.001s11.167-16.333 11.5-27c0-10.667-3.833-19.833-11.5-27.5s-16.667-11.333-27-11h-640c-10.666 0.333-19.666 4.167-27 11.5s-11.167 16.334-11.5 27c0 10.666 3.833 19.666 11.5 27s16.666 11 27 11h640zM729.5 153.998c11 0 20.167-3.833 27.5-11.5s11-16.833 11-27.499-3.833-19.667-11.5-27-16.667-11-27-11h-435c-11 0-20.166 3.833-27.5 11.5s-11 16.833-11 27.499 3.833 19.667 11.5 27 16.666 11 27 11h435zM832 307.498c10.667 0 19.667-3.833 27-11.5 7.333-7.333 11.167-16.333 11.5-27 0-10.666-3.833-19.666-11.5-27s-16.667-11.167-27-11.5h-640c-10.666 0-19.666 3.833-27 11.5-7.333 7.333-11.167 16.333-11.5 27 0 10.666 3.833 19.666 11.5 27s16.666 11.167 27 11.5h640zM729.5 461c11 0 20.167-3.833 27.5-11.5s11-16.833 11-27.5-3.833-19.667-11.5-27-16.667-11-27-11h-435c-11 0-20.166 3.833-27.5 11.5s-11 16.833-11 27.5 3.833 19.667 11.5 27 16.666 11 27 11h435z" />
<glyph unicode="&#xe063;" glyph-name="align_right" d="M192 0l640-0.001c10.667 0 19.667-3.667 27-11s11.167-16.334 11.5-27c0-10.666-3.833-19.833-11.5-27.5s-16.667-11.333-27-11h-640c-10.666 0.333-19.666 4.167-27 11.5s-11.167 16.334-11.5 27c0.333 10.667 4.167 19.667 11.5 27s16.334 11 27 11zM397 153.998h434.999c10.667 0 19.667-3.833 27-11.5s11.167-16.833 11.5-27.499c0-10.667-3.833-19.667-11.5-27s-16.667-11-27-11h-435c-10.666 0-19.833 3.833-27.5 11.5s-11.5 16.833-11.5 27.499 4 19.667 12 27c7.334 7.334 16.334 11 27 11zM191.999 307.498h640c10.667 0 19.667-3.833 27-11.5 7.333-7.333 11.167-16.333 11.5-27 0-10.666-3.833-19.666-11.5-27s-16.667-11.167-27-11.5h-640c-10.666 0-19.666 3.833-27 11.5-7.333 7.333-11.167 16.333-11.5 27 0.333 10.666 4.167 19.666 11.5 27s16.334 11.167 27 11.5zM396.998 461h434.999c10.667 0 19.667-3.833 27-11.5s11.167-16.833 11.5-27.5c0-10.667-3.833-19.667-11.5-27s-16.667-11-27-11h-435c-10.666 0-19.833 3.833-27.5 11.5s-11.5 16.833-11.5 27.5 4 19.667 12 27c7.334 7.333 16.334 11 27 11z" />
<glyph unicode="&#xe064;" glyph-name="align_justify" d="M627 0c10.667 0 19.834-3.668 27.5-11.001s11.5-16.333 11.5-27-4-19.833-12-27.5c-7.333-7.667-16.333-11.333-27-11h-435c-10.666 0.333-19.666 4.167-27 11.5s-11.167 16.334-11.5 27c0 10.666 3.833 19.666 11.5 27s16.666 11 27 11h435zM832 153.998c10.667 0 19.667-3.833 27-11.5s11.167-16.833 11.5-27.499c0-10.667-3.833-19.667-11.5-27s-16.667-11-27-11h-640c-10.666 0-19.666 3.833-27 11.5s-11.167 16.833-11.5 27.499c0 10.667 3.833 19.667 11.5 27s16.666 11 27 11h640zM832 307.498c10.667 0 19.667-3.833 27-11.5 7.333-7.333 11.167-16.333 11.5-27 0-10.666-3.833-19.666-11.5-27s-16.667-11.167-27-11.5h-640c-10.666 0-19.666 3.833-27 11.5-7.333 7.333-11.167 16.333-11.5 27 0 10.666 3.833 19.666 11.5 27s16.666 11.167 27 11.5h640zM832 461c10.667 0 19.667-3.833 27-11.5s11.167-16.833 11.5-27.5c0-10.667-3.833-19.667-11.5-27s-16.667-11-27-11h-640c-10.666 0-19.666 3.833-27 11.5s-11.167 16.833-11.5 27.5c0 10.667 3.833 19.667 11.5 27s16.666 11 27 11h640z" />
<glyph unicode="&#xe065;" glyph-name="paragraph" d="M409.5 461c-35.334 0-65.5-12.5-90.5-37.5s-37.5-55.167-37.5-90.5 12.5-65.5 37.5-90.5 55.166-37.5 90.5-37.5v256zM781 538c10.667 0 19.666-3.834 27-11.5s11-16.833 11-27.5-3.667-19.667-11-27-16.333-11-27-11h-90v-601.5c0-11-3.667-20.167-11-27.5s-16.333-11-27-11-19.833 3.833-27.5 11.5-11.333 16.667-11 27v601.5h-128v-601.5c0-11-3.833-20.167-11.5-27.5-7.334-7.333-16.334-11-27-11s-19.666 3.833-27 11.5-11.167 16.667-11.5 27v268.5c-56.666 0-105 20-145 60s-59.834 88.333-59.5 145c0 56.667 19.834 105 59.5 145 40 40 88.334 60 145 60h371.5z" />
<glyph unicode="&#xe066;" glyph-name="code" d="M781 410c10.667 0 19.832-4 27.499-12l152-139c8.333-7.666 12.5-17.166 12.5-28.5s-4.167-20.667-12.5-28l-152.5-140c-7.333-7.667-16.333-11.5-27-11.5s-19.833 4-27.5 12c-7.667 7.333-11.333 16.333-11 27 0 10.667 4 20 12 28l128.5 112.5-128 112-1 1.5c-8 8-12 17.333-12 28s4 19.667 12 27c7.333 7.333 16.333 11 27 11zM243 410c10.666 0 19.834-3.836 27.5-11.502s11.5-16.833 11.5-27.5-4.667-20.333-14-29l-127-111.5 127.5-111.5c9-8.667 13.5-18.333 13.5-29s-4-19.833-12-27.5c-7.334-7.667-16.334-11.5-27-11.5s-19.666 3.833-27 11.5l-152.5 140c-8.334 7.667-12.5 17.167-12.5 28.5s4.167 20.667 12.5 28l152 139c7.667 8 16.833 12 27.5 12zM577.5 538c10 0 18.667-3.999 26-11.999s11-15 11-21-0.333-11.333-1-16l-128-537c-2-8.667-6.5-15.667-13.5-21-6.666-5.333-15-7.833-25-7.5-10 0-18.666 3.833-26 11.5s-11.167 14.833-11.5 21.5c0 6.667 0.5 11.833 1.5 15.5l128 537c2 8.667 6.333 15.667 13 21s15.167 8 25.5 8z" />
<glyph unicode="&#xe067;" glyph-name="ellipsis" d="M768 410c20.667 0 38.667-7.5 54-22.5s23-33.167 23-54.5-7.5-39.333-22.5-54c-15-15.333-33.167-23-54.5-23s-39.5 7.5-54.5 22.5-22.5 33.167-22.5 54.5 7.5 39.5 22.5 54.5c15.333 15 33.5 22.5 54.5 22.5zM512 410c20.667 0 38.667-7.5 54-22.5s23-33.167 23-54.5-7.5-39.333-22.5-54c-15-15.333-33.167-23-54.5-23s-39.5 7.5-54.5 22.5-22.5 33.167-22.5 54.5 7.5 39.5 22.5 54.5c15.334 15 33.5 22.5 54.5 22.5zM256 410c20.666 0 38.666-7.5 54-22.5s23-33.167 23-54.5-7.5-39.333-22.5-54c-15-15.333-33.166-23-54.5-23s-39.5 7.5-54.5 22.5-22.5 33.167-22.5 54.5 7.5 39.5 22.5 54.5c15.334 15 33.5 22.5 54.5 22.5z" />
</font>
</defs>
</svg>
